M48
; DRILL file {KiCad (5.1.9)-1} date 10/09/21 15:52:10
; FORMAT={-:-/ absolute / inch / decimal}
; #@! TF.CreationDate,2021-10-09T15:52:10-04:00
; #@! TF.GenerationSoftware,Kicad,Pcbnew,(5.1.9)-1
FMAT,2
INCH
T1C0.0157
T2C0.0300
T3C0.0315
T4C0.0354
T5C0.0394
T6C0.0433
%
G90
G05
T1
X2.1Y-5.35
X2.125Y-5.55
X2.125Y-5.75
X2.125Y-5.8
X2.15Y-5.45
X2.475Y-5.65
X2.5Y-4.83
X2.55Y-5.725
X2.575Y-5.4
X2.725Y-4.575
X2.725Y-5.925
X2.725Y-6.05
X2.8Y-4.575
X2.825Y-3.475
X2.975Y-3.475
X3.05Y-5.05
X3.05Y-5.1
X3.075Y-6.05
X3.175Y-4.975
X3.2Y-5.025
X3.225Y-5.275
X3.275Y-5.825
X3.3Y-4.55
X3.3Y-5.99
X3.33Y-5.5
X3.34Y-5.74
X3.35Y-5.4
X3.35Y-5.875
X3.35Y-5.95
X3.38Y-5.66
X3.39Y-5.49
X3.4Y-4.65
X3.42Y-3.0
X3.425Y-2.175
X3.425Y-2.85
X3.44Y-5.82
X3.45Y-5.375
X3.45Y-5.46
X3.5Y-4.85
X3.525Y-2.85
X3.525Y-5.8
X3.525Y-5.92
X3.55Y-4.6
X3.55Y-5.375
X3.55Y-5.425
X3.55Y-5.675
X3.575Y-4.75
X3.6Y-5.65
X3.625Y-2.775
X3.625Y-5.6
X3.64Y-4.64
X3.65Y-2.975
X3.65Y-3.05
X3.65Y-3.3
X3.65Y-4.825
X3.65Y-4.925
X3.7Y-6.325
X3.72Y-5.44
X3.72Y-5.86
X3.725Y-3.35
X3.75Y-6.125
X3.76Y-5.88
X3.79Y-4.84
X3.7975Y-5.4275
X3.8Y-6.02
X3.825Y-2.05
X3.825Y-4.5
X3.84Y-4.8
X3.8975Y-5.4275
X3.9Y-4.5
X3.9Y-5.58
X3.925Y-4.4
X3.94Y-5.53
X3.97Y-5.5
X4.0Y-4.4
X4.05Y-5.02
X4.12Y-5.09
X4.175Y-2.875
X4.175Y-4.15
X4.2Y-2.75
X4.2Y-2.925
X4.2Y-3.0
X4.2Y-3.1
X4.2Y-3.2
X4.2Y-3.3
X4.2Y-3.4
X4.225Y-3.85
X4.24Y-6.3
X4.275Y-3.95
X4.325Y-4.05
X4.375Y-4.15
X4.405Y-6.3
T2
X3.3Y-6.3
X3.4Y-6.2
X3.5Y-6.2
X3.6Y-6.2
X3.7Y-6.2
X3.8Y-6.2
X3.9Y-6.2
X4.0Y-6.2
X4.1Y-6.2
T3
X1.8Y-4.9
X1.8Y-5.0
X1.8Y-5.1
X1.8Y-5.2
X1.8Y-5.3
X1.8Y-5.4
X1.8Y-5.5
X1.8Y-5.6
X1.8Y-5.7
X1.8Y-5.8
X1.9Y-4.9
X1.9Y-5.0
X1.9Y-5.1
X1.9Y-5.2
X1.9Y-5.3
X1.9Y-5.4
X1.9Y-5.5
X1.9Y-5.6
X1.9Y-5.7
X1.9Y-5.8
X3.225Y-1.85
X3.225Y-1.95
X3.225Y-2.59
X3.225Y-2.69
X3.3Y-5.175
X3.3Y-5.275
X3.325Y-1.85
X3.325Y-1.95
X3.325Y-2.59
X3.325Y-2.69
X3.4Y-5.175
X3.4Y-5.275
X3.425Y-1.85
X3.425Y-1.95
X3.425Y-2.59
X3.425Y-2.69
X3.5Y-5.175
X3.5Y-5.275
X3.525Y-1.85
X3.525Y-1.95
X3.525Y-2.59
X3.525Y-2.69
X3.6Y-5.175
X3.6Y-5.275
X3.625Y-1.85
X3.625Y-1.95
X3.625Y-2.59
X3.625Y-2.69
X3.7Y-5.175
X3.7Y-5.275
X3.725Y-1.85
X3.725Y-1.95
X3.725Y-2.59
X3.725Y-2.69
X3.8Y-5.175
X3.8Y-5.275
X3.825Y-1.85
X3.825Y-1.95
X3.825Y-2.59
X3.825Y-2.69
X3.9Y-5.175
X3.9Y-5.275
X3.925Y-1.85
X3.925Y-1.95
X3.925Y-2.59
X3.925Y-2.69
X4.0Y-5.175
X4.0Y-5.275
X4.025Y-1.85
X4.025Y-1.95
X4.025Y-2.59
X4.025Y-2.69
X4.1Y-5.175
X4.1Y-5.275
X4.125Y-1.85
X4.125Y-1.95
X4.125Y-2.59
X4.125Y-2.69
X4.2Y-5.175
X4.2Y-5.275
T4
X2.35Y-6.775
X2.85Y-6.775
T5
X2.35Y-4.15
X2.35Y-4.25
X2.35Y-4.35
X2.35Y-4.45
X2.35Y-4.55
X2.35Y-4.65
X2.35Y-4.75
X2.35Y-4.85
X2.35Y-4.95
X2.35Y-5.05
X2.35Y-5.15
X2.35Y-5.25
X2.35Y-5.35
X2.35Y-5.45
X2.35Y-5.55
X2.35Y-5.65
X2.35Y-5.75
X2.35Y-5.85
X2.35Y-5.95
X2.35Y-6.05
X2.35Y-6.15
X2.35Y-6.25
X2.35Y-6.35
X2.35Y-6.45
X2.95Y-4.15
X2.95Y-4.25
X2.95Y-4.35
X2.95Y-4.45
X2.95Y-4.55
X2.95Y-4.65
X2.95Y-4.75
X2.95Y-4.85
X2.95Y-4.95
X2.95Y-5.05
X2.95Y-5.15
X2.95Y-5.25
X2.95Y-5.35
X2.95Y-5.45
X2.95Y-5.55
X2.95Y-5.65
X2.95Y-5.75
X2.95Y-5.85
X2.95Y-5.95
X2.95Y-6.05
X2.95Y-6.15
X2.95Y-6.25
X2.95Y-6.35
X2.95Y-6.45
X4.55Y-1.85
X4.55Y-1.95
X4.55Y-2.05
X4.55Y-2.15
X4.55Y-2.25
X4.55Y-2.35
X4.55Y-2.45
X4.55Y-2.55
X4.55Y-2.65
X4.55Y-2.75
X4.55Y-2.85
X4.55Y-2.95
X4.55Y-3.05
X4.55Y-3.15
X4.55Y-3.25
X4.55Y-3.35
X4.55Y-3.45
X4.55Y-3.55
X4.55Y-3.65
X4.55Y-3.75
X4.55Y-3.85
X4.55Y-3.95
X4.55Y-4.05
X4.55Y-4.15
X4.55Y-4.25
X4.55Y-4.35
X4.55Y-4.45
X4.55Y-4.55
X4.55Y-4.65
X4.55Y-4.75
X4.55Y-4.85
X4.55Y-4.95
X4.55Y-5.05
X4.55Y-5.15
X4.55Y-5.25
X4.55Y-5.35
X4.55Y-5.45
X4.55Y-5.55
X4.55Y-5.65
X4.55Y-5.75
X4.55Y-5.85
X4.55Y-5.95
X4.55Y-6.05
X4.55Y-6.15
X4.55Y-6.25
X4.55Y-6.35
X4.55Y-6.45
X4.55Y-6.55
X4.55Y-6.65
X4.65Y-1.85
X4.65Y-1.95
X4.65Y-2.05
X4.65Y-2.15
X4.65Y-2.25
X4.65Y-2.35
X4.65Y-2.45
X4.65Y-2.55
X4.65Y-2.65
X4.65Y-2.75
X4.65Y-2.85
X4.65Y-2.95
X4.65Y-3.05
X4.65Y-3.15
X4.65Y-3.25
X4.65Y-3.35
X4.65Y-3.45
X4.65Y-3.55
X4.65Y-3.65
X4.65Y-3.75
X4.65Y-3.85
X4.65Y-3.95
X4.65Y-4.05
X4.65Y-4.15
X4.65Y-4.25
X4.65Y-4.35
X4.65Y-4.45
X4.65Y-4.55
X4.65Y-4.65
X4.65Y-4.75
X4.65Y-4.85
X4.65Y-4.95
X4.65Y-5.05
X4.65Y-5.15
X4.65Y-5.25
X4.65Y-5.35
X4.65Y-5.45
X4.65Y-5.55
X4.65Y-5.65
X4.65Y-5.75
X4.65Y-5.85
X4.65Y-5.95
X4.65Y-6.05
X4.65Y-6.15
X4.65Y-6.25
X4.65Y-6.35
X4.65Y-6.45
X4.65Y-6.55
X4.65Y-6.65
T6
X2.3Y-2.0
X2.5Y-1.9
X2.5Y-2.1
X2.5Y-2.6
X2.5Y-3.2
X2.6Y-2.6
X2.6Y-3.2
X2.7Y-2.6
X2.7Y-3.2
T0
M30
