%TF.GenerationSoftware,KiCad,Pcbnew,(5.1.9)-1*%
%TF.CreationDate,2021-10-09T15:43:02-04:00*%
%TF.ProjectId,4wire_sd_breakout,34776972-655f-4736-945f-627265616b6f,rev?*%
%TF.SameCoordinates,Original*%
%TF.FileFunction,Copper,L1,Top*%
%TF.FilePolarity,Positive*%
%FSLAX46Y46*%
G04 Gerber Fmt 4.6, Leading zero omitted, Abs format (unit mm)*
G04 Created by KiCad (PCBNEW (5.1.9)-1) date 2021-10-09 15:43:02*
%MOMM*%
%LPD*%
G01*
G04 APERTURE LIST*
%TA.AperFunction,ComponentPad*%
%ADD10C,1.524000*%
%TD*%
%TA.AperFunction,ComponentPad*%
%ADD11O,1.800000X1.400000*%
%TD*%
%TA.AperFunction,ComponentPad*%
%ADD12O,1.400000X1.800000*%
%TD*%
%TA.AperFunction,ComponentPad*%
%ADD13O,1.905000X2.000000*%
%TD*%
%TA.AperFunction,ComponentPad*%
%ADD14R,1.905000X2.000000*%
%TD*%
%TA.AperFunction,ComponentPad*%
%ADD15C,2.400000*%
%TD*%
%TA.AperFunction,ComponentPad*%
%ADD16O,1.800000X1.800000*%
%TD*%
%TA.AperFunction,ComponentPad*%
%ADD17R,1.800000X1.800000*%
%TD*%
%TA.AperFunction,ViaPad*%
%ADD18C,0.800000*%
%TD*%
%TA.AperFunction,Conductor*%
%ADD19C,1.000000*%
%TD*%
%TA.AperFunction,Conductor*%
%ADD20C,0.500000*%
%TD*%
%TA.AperFunction,Conductor*%
%ADD21C,0.250000*%
%TD*%
%TA.AperFunction,Conductor*%
%ADD22C,0.750000*%
%TD*%
G04 APERTURE END LIST*
%TO.P,R6,2*%
%TO.N,Net-(R6-Pad2)*%
%TA.AperFunction,SMDPad,CuDef*%
G36*
G01*
X83582500Y-155111000D02*
X84057500Y-155111000D01*
G75*
G02*
X84295000Y-155348500I0J-237500D01*
G01*
X84295000Y-155848500D01*
G75*
G02*
X84057500Y-156086000I-237500J0D01*
G01*
X83582500Y-156086000D01*
G75*
G02*
X83345000Y-155848500I0J237500D01*
G01*
X83345000Y-155348500D01*
G75*
G02*
X83582500Y-155111000I237500J0D01*
G01*
G37*
%TD.AperFunction*%
%TO.P,R6,1*%
%TO.N,/SD_DAT2*%
%TA.AperFunction,SMDPad,CuDef*%
G36*
G01*
X83582500Y-153286000D02*
X84057500Y-153286000D01*
G75*
G02*
X84295000Y-153523500I0J-237500D01*
G01*
X84295000Y-154023500D01*
G75*
G02*
X84057500Y-154261000I-237500J0D01*
G01*
X83582500Y-154261000D01*
G75*
G02*
X83345000Y-154023500I0J237500D01*
G01*
X83345000Y-153523500D01*
G75*
G02*
X83582500Y-153286000I237500J0D01*
G01*
G37*
%TD.AperFunction*%
%TD*%
D10*
%TO.P,U6,9*%
%TO.N,Net-(R6-Pad2)*%
X83820000Y-160020000D03*
%TO.P,U6,8*%
%TO.N,Net-(R10-Pad2)*%
X104140000Y-157480000D03*
%TO.P,U6,7*%
%TO.N,Net-(R9-Pad2)*%
X101600000Y-157480000D03*
%TO.P,U6,6*%
%TO.N,GND*%
X99060000Y-157480000D03*
%TO.P,U6,5*%
%TO.N,/SD_CLK*%
X96520000Y-157480000D03*
%TO.P,U6,4*%
%TO.N,+3V3*%
X93980000Y-157480000D03*
%TO.P,U6,3*%
%TO.N,GND*%
X91440000Y-157480000D03*
%TO.P,U6,2*%
%TO.N,Net-(R8-Pad2)*%
X88900000Y-157480000D03*
%TO.P,U6,1*%
%TO.N,Net-(R7-Pad2)*%
X86360000Y-157480000D03*
%TD*%
D11*
%TO.P,U4,24*%
%TO.N,Net-(D1-Pad1)*%
X59690000Y-163830000D03*
%TO.P,U4,25*%
%TO.N,GND*%
X74930000Y-163830000D03*
%TO.P,U4,23*%
%TO.N,Net-(U4-Pad23)*%
X59690000Y-161290000D03*
%TO.P,U4,26*%
%TO.N,/Sig_0*%
X74930000Y-161290000D03*
%TO.P,U4,22*%
%TO.N,Net-(U4-Pad22)*%
X59690000Y-158750000D03*
%TO.P,U4,27*%
%TO.N,/Sig_1*%
X74930000Y-158750000D03*
%TO.P,U4,21*%
%TO.N,Net-(U4-Pad21)*%
X59690000Y-156210000D03*
%TO.P,U4,28*%
%TO.N,/Sig_2*%
X74930000Y-156210000D03*
%TO.P,U4,20*%
%TO.N,Net-(U4-Pad20)*%
X59690000Y-153670000D03*
%TO.P,U4,29*%
%TO.N,/CMD_CS*%
X74930000Y-153670000D03*
%TO.P,U4,19*%
%TO.N,Net-(U4-Pad19)*%
X59690000Y-151130000D03*
%TO.P,U4,30*%
%TO.N,/CMD_MOSI*%
X74930000Y-151130000D03*
%TO.P,U4,18*%
%TO.N,Net-(U4-Pad18)*%
X59690000Y-148590000D03*
%TO.P,U4,31*%
%TO.N,/SD_DAT1*%
X74930000Y-148590000D03*
%TO.P,U4,17*%
%TO.N,Net-(U4-Pad17)*%
X59690000Y-146050000D03*
%TO.P,U4,32*%
%TO.N,/SD_DAT0*%
X74930000Y-146050000D03*
%TO.P,U4,16*%
%TO.N,Net-(U4-Pad16)*%
X59690000Y-143510000D03*
%TO.P,U4,33*%
%TO.N,/SD_CMD*%
X74930000Y-143510000D03*
%TO.P,U4,15*%
%TO.N,Net-(U4-Pad15)*%
X59690000Y-140970000D03*
%TO.P,U4,34*%
%TO.N,/SD_DAT3*%
X74930000Y-140970000D03*
%TO.P,U4,14*%
%TO.N,Net-(U4-Pad14)*%
X59690000Y-138430000D03*
%TO.P,U4,35*%
%TO.N,/SD_DAT2*%
X74930000Y-138430000D03*
%TO.P,U4,13*%
%TO.N,Net-(U4-Pad13)*%
X59690000Y-135890000D03*
%TO.P,U4,36*%
%TO.N,/SD_CLK*%
X74930000Y-135890000D03*
%TO.P,U4,12*%
%TO.N,Net-(U4-Pad12)*%
X59690000Y-133350000D03*
%TO.P,U4,37*%
%TO.N,/CMD_MISO*%
X74930000Y-133350000D03*
%TO.P,U4,11*%
%TO.N,Net-(U4-Pad11)*%
X59690000Y-130810000D03*
%TO.P,U4,38*%
%TO.N,/DATA_D2*%
X74930000Y-130810000D03*
%TO.P,U4,10*%
%TO.N,Net-(U4-Pad10)*%
X59690000Y-128270000D03*
%TO.P,U4,39*%
%TO.N,/DATA_D3*%
X74930000Y-128270000D03*
%TO.P,U4,9*%
%TO.N,Net-(U4-Pad9)*%
X59690000Y-125730000D03*
%TO.P,U4,40*%
%TO.N,/CMD_CLK*%
X74930000Y-125730000D03*
%TO.P,U4,8*%
%TO.N,Net-(U4-Pad8)*%
X59690000Y-123190000D03*
%TO.P,U4,41*%
%TO.N,/DATA_D0*%
X74930000Y-123190000D03*
%TO.P,U4,7*%
%TO.N,/Sig_5*%
X59690000Y-120650000D03*
%TO.P,U4,42*%
%TO.N,/DATA_D1*%
X74930000Y-120650000D03*
%TO.P,U4,6*%
%TO.N,/Sig_4*%
X59690000Y-118110000D03*
%TO.P,U4,43*%
%TO.N,/DATA_CLK*%
X74930000Y-118110000D03*
%TO.P,U4,5*%
%TO.N,/Sig_3*%
X59690000Y-115570000D03*
%TO.P,U4,44*%
%TO.N,/DATA_FSS*%
X74930000Y-115570000D03*
%TO.P,U4,4*%
%TO.N,Net-(U4-Pad4)*%
X59690000Y-113030000D03*
%TO.P,U4,45*%
%TO.N,Net-(U4-Pad45)*%
X74930000Y-113030000D03*
%TO.P,U4,3*%
%TO.N,Net-(U4-Pad3)*%
X59690000Y-110490000D03*
%TO.P,U4,46*%
%TO.N,Net-(U4-Pad46)*%
X74930000Y-110490000D03*
%TO.P,U4,2*%
%TO.N,Net-(U4-Pad2)*%
X59690000Y-107950000D03*
%TO.P,U4,47*%
%TO.N,Net-(U4-Pad47)*%
X74930000Y-107950000D03*
%TO.P,U4,1*%
%TO.N,Net-(U4-Pad1)*%
X59690000Y-105410000D03*
%TO.P,U4,48*%
%TO.N,Net-(U4-Pad48)*%
X74930000Y-105410000D03*
%TD*%
D12*
%TO.P,U8,10*%
%TO.N,Net-(U8-Pad10)*%
X81915000Y-65786000D03*
%TO.P,U8,20*%
%TO.N,Net-(U8-Pad20)*%
X81915000Y-68326000D03*
%TO.P,U8,9*%
%TO.N,GND*%
X84455000Y-65786000D03*
%TO.P,U8,19*%
X84455000Y-68326000D03*
%TO.P,U8,8*%
%TO.N,/USB0_CLK*%
X86995000Y-65786000D03*
%TO.P,U8,18*%
%TO.N,/USB0_DAT7*%
X86995000Y-68326000D03*
%TO.P,U8,7*%
%TO.N,/USB0_STP*%
X89535000Y-65786000D03*
%TO.P,U8,17*%
%TO.N,/USB0_DAT6*%
X89535000Y-68326000D03*
%TO.P,U8,6*%
%TO.N,/USB0_NXT*%
X92075000Y-65786000D03*
%TO.P,U8,16*%
%TO.N,/USB0_DAT5*%
X92075000Y-68326000D03*
%TO.P,U8,5*%
%TO.N,/USB0_DIR*%
X94615000Y-65786000D03*
%TO.P,U8,15*%
%TO.N,/USB0_DAT4*%
X94615000Y-68326000D03*
%TO.P,U8,4*%
%TO.N,/USB0_RST*%
X97155000Y-65786000D03*
%TO.P,U8,14*%
%TO.N,/USB0_DAT3*%
X97155000Y-68326000D03*
%TO.P,U8,3*%
%TO.N,Net-(U8-Pad3)*%
X99695000Y-65786000D03*
%TO.P,U8,13*%
%TO.N,/USB0_DAT2*%
X99695000Y-68326000D03*
%TO.P,U8,2*%
%TO.N,Net-(U8-Pad2)*%
X102235000Y-65786000D03*
%TO.P,U8,12*%
%TO.N,/USB0_DAT1*%
X102235000Y-68326000D03*
%TO.P,U8,1*%
%TO.N,Net-(U8-Pad1)*%
X104775000Y-65786000D03*
%TO.P,U8,11*%
%TO.N,/USB0_DAT0*%
X104775000Y-68326000D03*
%TD*%
%TO.P,U7,10*%
%TO.N,+3V3*%
X81915000Y-46990000D03*
%TO.P,U7,20*%
X81915000Y-49530000D03*
%TO.P,U7,9*%
%TO.N,GND*%
X84455000Y-46990000D03*
%TO.P,U7,19*%
X84455000Y-49530000D03*
%TO.P,U7,8*%
%TO.N,/USB0_STP*%
X86995000Y-46990000D03*
%TO.P,U7,18*%
%TO.N,/USB0_DAT7*%
X86995000Y-49530000D03*
%TO.P,U7,7*%
%TO.N,/USB0_NXT*%
X89535000Y-46990000D03*
%TO.P,U7,17*%
%TO.N,/USB0_DAT6*%
X89535000Y-49530000D03*
%TO.P,U7,6*%
%TO.N,/USB0_DIR*%
X92075000Y-46990000D03*
%TO.P,U7,16*%
%TO.N,/USB0_DAT5*%
X92075000Y-49530000D03*
%TO.P,U7,5*%
%TO.N,/USB0_CLK*%
X94615000Y-46990000D03*
%TO.P,U7,15*%
%TO.N,/USB0_DAT4*%
X94615000Y-49530000D03*
%TO.P,U7,4*%
%TO.N,/USB0_RST*%
X97155000Y-46990000D03*
%TO.P,U7,14*%
%TO.N,/USB0_DAT3*%
X97155000Y-49530000D03*
%TO.P,U7,3*%
%TO.N,Net-(U7-Pad3)*%
X99695000Y-46990000D03*
%TO.P,U7,13*%
%TO.N,/USB0_DAT2*%
X99695000Y-49530000D03*
%TO.P,U7,2*%
%TO.N,+5V*%
X102235000Y-46990000D03*
%TO.P,U7,12*%
%TO.N,/USB0_DAT1*%
X102235000Y-49530000D03*
%TO.P,U7,1*%
%TO.N,+5V*%
X104775000Y-46990000D03*
%TO.P,U7,11*%
%TO.N,/USB0_DAT0*%
X104775000Y-49530000D03*
%TD*%
%TO.P,U5,10*%
%TO.N,Net-(U5-Pad10)*%
X106680000Y-133985000D03*
%TO.P,U5,20*%
%TO.N,Net-(U5-Pad20)*%
X106680000Y-131445000D03*
%TO.P,U5,9*%
%TO.N,GND*%
X104140000Y-133985000D03*
%TO.P,U5,19*%
X104140000Y-131445000D03*
%TO.P,U5,8*%
%TO.N,/Sig_3*%
X101600000Y-133985000D03*
%TO.P,U5,18*%
%TO.N,/Sig_5*%
X101600000Y-131445000D03*
%TO.P,U5,7*%
%TO.N,/Sig_2*%
X99060000Y-133985000D03*
%TO.P,U5,17*%
%TO.N,/Sig_4*%
X99060000Y-131445000D03*
%TO.P,U5,6*%
%TO.N,/Sig_1*%
X96520000Y-133985000D03*
%TO.P,U5,16*%
%TO.N,/DATA_D3*%
X96520000Y-131445000D03*
%TO.P,U5,5*%
%TO.N,/Sig_0*%
X93980000Y-133985000D03*
%TO.P,U5,15*%
%TO.N,/DATA_D2*%
X93980000Y-131445000D03*
%TO.P,U5,4*%
%TO.N,/CMD_MISO*%
X91440000Y-133985000D03*
%TO.P,U5,14*%
%TO.N,/DATA_D1*%
X91440000Y-131445000D03*
%TO.P,U5,3*%
%TO.N,/CMD_MOSI*%
X88900000Y-133985000D03*
%TO.P,U5,13*%
%TO.N,/DATA_D0*%
X88900000Y-131445000D03*
%TO.P,U5,2*%
%TO.N,/CMD_CLK*%
X86360000Y-133985000D03*
%TO.P,U5,12*%
%TO.N,/DATA_CLK*%
X86360000Y-131445000D03*
%TO.P,U5,1*%
%TO.N,/CMD_CS*%
X83820000Y-133985000D03*
%TO.P,U5,11*%
%TO.N,/DATA_FSS*%
X83820000Y-131445000D03*
%TD*%
D11*
%TO.P,U3,10*%
%TO.N,Net-(U3-Pad10)*%
X48260000Y-124460000D03*
%TO.P,U3,20*%
%TO.N,Net-(U3-Pad20)*%
X45720000Y-124460000D03*
%TO.P,U3,9*%
%TO.N,GND*%
X48260000Y-127000000D03*
%TO.P,U3,19*%
X45720000Y-127000000D03*
%TO.P,U3,8*%
%TO.N,Net-(U3-Pad8)*%
X48260000Y-129540000D03*
%TO.P,U3,18*%
%TO.N,Net-(U3-Pad18)*%
X45720000Y-129540000D03*
%TO.P,U3,7*%
%TO.N,Net-(U3-Pad7)*%
X48260000Y-132080000D03*
%TO.P,U3,17*%
%TO.N,Net-(U3-Pad17)*%
X45720000Y-132080000D03*
%TO.P,U3,6*%
%TO.N,/SD_DAT3*%
X48260000Y-134620000D03*
%TO.P,U3,16*%
%TO.N,Net-(U3-Pad16)*%
X45720000Y-134620000D03*
%TO.P,U3,5*%
%TO.N,/SD_DAT2*%
X48260000Y-137160000D03*
%TO.P,U3,15*%
%TO.N,Net-(U3-Pad15)*%
X45720000Y-137160000D03*
%TO.P,U3,4*%
%TO.N,/SD_DAT1*%
X48260000Y-139700000D03*
%TO.P,U3,14*%
%TO.N,Net-(U3-Pad14)*%
X45720000Y-139700000D03*
%TO.P,U3,3*%
%TO.N,/SD_DAT0*%
X48260000Y-142240000D03*
%TO.P,U3,13*%
%TO.N,Net-(U3-Pad13)*%
X45720000Y-142240000D03*
%TO.P,U3,2*%
%TO.N,/SD_CMD*%
X48260000Y-144780000D03*
%TO.P,U3,12*%
%TO.N,Net-(U3-Pad12)*%
X45720000Y-144780000D03*
%TO.P,U3,1*%
%TO.N,/SD_CLK*%
X48260000Y-147320000D03*
%TO.P,U3,11*%
%TO.N,Net-(U3-Pad11)*%
X45720000Y-147320000D03*
%TD*%
D13*
%TO.P,U2,3*%
%TO.N,Net-(C1-Pad2)*%
X63500000Y-81280000D03*
%TO.P,U2,2*%
%TO.N,+3V3*%
X66040000Y-81280000D03*
D14*
%TO.P,U2,1*%
%TO.N,GND*%
X68580000Y-81280000D03*
%TD*%
D13*
%TO.P,U1,3*%
%TO.N,+5V*%
X68580000Y-66040000D03*
%TO.P,U1,2*%
%TO.N,GND*%
X66040000Y-66040000D03*
D14*
%TO.P,U1,1*%
%TO.N,Net-(C1-Pad2)*%
X63500000Y-66040000D03*
%TD*%
%TO.P,R10,2*%
%TO.N,Net-(R10-Pad2)*%
%TA.AperFunction,SMDPad,CuDef*%
G36*
G01*
X103902500Y-154095000D02*
X104377500Y-154095000D01*
G75*
G02*
X104615000Y-154332500I0J-237500D01*
G01*
X104615000Y-154832500D01*
G75*
G02*
X104377500Y-155070000I-237500J0D01*
G01*
X103902500Y-155070000D01*
G75*
G02*
X103665000Y-154832500I0J237500D01*
G01*
X103665000Y-154332500D01*
G75*
G02*
X103902500Y-154095000I237500J0D01*
G01*
G37*
%TD.AperFunction*%
%TO.P,R10,1*%
%TO.N,/SD_DAT1*%
%TA.AperFunction,SMDPad,CuDef*%
G36*
G01*
X103902500Y-152270000D02*
X104377500Y-152270000D01*
G75*
G02*
X104615000Y-152507500I0J-237500D01*
G01*
X104615000Y-153007500D01*
G75*
G02*
X104377500Y-153245000I-237500J0D01*
G01*
X103902500Y-153245000D01*
G75*
G02*
X103665000Y-153007500I0J237500D01*
G01*
X103665000Y-152507500D01*
G75*
G02*
X103902500Y-152270000I237500J0D01*
G01*
G37*
%TD.AperFunction*%
%TD*%
%TO.P,R9,2*%
%TO.N,Net-(R9-Pad2)*%
%TA.AperFunction,SMDPad,CuDef*%
G36*
G01*
X101362500Y-154095000D02*
X101837500Y-154095000D01*
G75*
G02*
X102075000Y-154332500I0J-237500D01*
G01*
X102075000Y-154832500D01*
G75*
G02*
X101837500Y-155070000I-237500J0D01*
G01*
X101362500Y-155070000D01*
G75*
G02*
X101125000Y-154832500I0J237500D01*
G01*
X101125000Y-154332500D01*
G75*
G02*
X101362500Y-154095000I237500J0D01*
G01*
G37*
%TD.AperFunction*%
%TO.P,R9,1*%
%TO.N,/SD_DAT0*%
%TA.AperFunction,SMDPad,CuDef*%
G36*
G01*
X101362500Y-152270000D02*
X101837500Y-152270000D01*
G75*
G02*
X102075000Y-152507500I0J-237500D01*
G01*
X102075000Y-153007500D01*
G75*
G02*
X101837500Y-153245000I-237500J0D01*
G01*
X101362500Y-153245000D01*
G75*
G02*
X101125000Y-153007500I0J237500D01*
G01*
X101125000Y-152507500D01*
G75*
G02*
X101362500Y-152270000I237500J0D01*
G01*
G37*
%TD.AperFunction*%
%TD*%
%TO.P,R8,2*%
%TO.N,Net-(R8-Pad2)*%
%TA.AperFunction,SMDPad,CuDef*%
G36*
G01*
X88662500Y-154095000D02*
X89137500Y-154095000D01*
G75*
G02*
X89375000Y-154332500I0J-237500D01*
G01*
X89375000Y-154832500D01*
G75*
G02*
X89137500Y-155070000I-237500J0D01*
G01*
X88662500Y-155070000D01*
G75*
G02*
X88425000Y-154832500I0J237500D01*
G01*
X88425000Y-154332500D01*
G75*
G02*
X88662500Y-154095000I237500J0D01*
G01*
G37*
%TD.AperFunction*%
%TO.P,R8,1*%
%TO.N,/SD_CMD*%
%TA.AperFunction,SMDPad,CuDef*%
G36*
G01*
X88662500Y-152270000D02*
X89137500Y-152270000D01*
G75*
G02*
X89375000Y-152507500I0J-237500D01*
G01*
X89375000Y-153007500D01*
G75*
G02*
X89137500Y-153245000I-237500J0D01*
G01*
X88662500Y-153245000D01*
G75*
G02*
X88425000Y-153007500I0J237500D01*
G01*
X88425000Y-152507500D01*
G75*
G02*
X88662500Y-152270000I237500J0D01*
G01*
G37*
%TD.AperFunction*%
%TD*%
%TO.P,R7,2*%
%TO.N,Net-(R7-Pad2)*%
%TA.AperFunction,SMDPad,CuDef*%
G36*
G01*
X86122500Y-154095000D02*
X86597500Y-154095000D01*
G75*
G02*
X86835000Y-154332500I0J-237500D01*
G01*
X86835000Y-154832500D01*
G75*
G02*
X86597500Y-155070000I-237500J0D01*
G01*
X86122500Y-155070000D01*
G75*
G02*
X85885000Y-154832500I0J237500D01*
G01*
X85885000Y-154332500D01*
G75*
G02*
X86122500Y-154095000I237500J0D01*
G01*
G37*
%TD.AperFunction*%
%TO.P,R7,1*%
%TO.N,/SD_DAT3*%
%TA.AperFunction,SMDPad,CuDef*%
G36*
G01*
X86122500Y-152270000D02*
X86597500Y-152270000D01*
G75*
G02*
X86835000Y-152507500I0J-237500D01*
G01*
X86835000Y-153007500D01*
G75*
G02*
X86597500Y-153245000I-237500J0D01*
G01*
X86122500Y-153245000D01*
G75*
G02*
X85885000Y-153007500I0J237500D01*
G01*
X85885000Y-152507500D01*
G75*
G02*
X86122500Y-152270000I237500J0D01*
G01*
G37*
%TD.AperFunction*%
%TD*%
%TO.P,R5,2*%
%TO.N,+3V3*%
%TA.AperFunction,SMDPad,CuDef*%
G36*
G01*
X96730000Y-147082500D02*
X96730000Y-147557500D01*
G75*
G02*
X96492500Y-147795000I-237500J0D01*
G01*
X95992500Y-147795000D01*
G75*
G02*
X95755000Y-147557500I0J237500D01*
G01*
X95755000Y-147082500D01*
G75*
G02*
X95992500Y-146845000I237500J0D01*
G01*
X96492500Y-146845000D01*
G75*
G02*
X96730000Y-147082500I0J-237500D01*
G01*
G37*
%TD.AperFunction*%
%TO.P,R5,1*%
%TO.N,/SD_DAT1*%
%TA.AperFunction,SMDPad,CuDef*%
G36*
G01*
X98555000Y-147082500D02*
X98555000Y-147557500D01*
G75*
G02*
X98317500Y-147795000I-237500J0D01*
G01*
X97817500Y-147795000D01*
G75*
G02*
X97580000Y-147557500I0J237500D01*
G01*
X97580000Y-147082500D01*
G75*
G02*
X97817500Y-146845000I237500J0D01*
G01*
X98317500Y-146845000D01*
G75*
G02*
X98555000Y-147082500I0J-237500D01*
G01*
G37*
%TD.AperFunction*%
%TD*%
%TO.P,R4,2*%
%TO.N,+3V3*%
%TA.AperFunction,SMDPad,CuDef*%
G36*
G01*
X96730000Y-150892500D02*
X96730000Y-151367500D01*
G75*
G02*
X96492500Y-151605000I-237500J0D01*
G01*
X95992500Y-151605000D01*
G75*
G02*
X95755000Y-151367500I0J237500D01*
G01*
X95755000Y-150892500D01*
G75*
G02*
X95992500Y-150655000I237500J0D01*
G01*
X96492500Y-150655000D01*
G75*
G02*
X96730000Y-150892500I0J-237500D01*
G01*
G37*
%TD.AperFunction*%
%TO.P,R4,1*%
%TO.N,/SD_DAT0*%
%TA.AperFunction,SMDPad,CuDef*%
G36*
G01*
X98555000Y-150892500D02*
X98555000Y-151367500D01*
G75*
G02*
X98317500Y-151605000I-237500J0D01*
G01*
X97817500Y-151605000D01*
G75*
G02*
X97580000Y-151367500I0J237500D01*
G01*
X97580000Y-150892500D01*
G75*
G02*
X97817500Y-150655000I237500J0D01*
G01*
X98317500Y-150655000D01*
G75*
G02*
X98555000Y-150892500I0J-237500D01*
G01*
G37*
%TD.AperFunction*%
%TD*%
%TO.P,R3,2*%
%TO.N,+3V3*%
%TA.AperFunction,SMDPad,CuDef*%
G36*
G01*
X93135000Y-151367500D02*
X93135000Y-150892500D01*
G75*
G02*
X93372500Y-150655000I237500J0D01*
G01*
X93872500Y-150655000D01*
G75*
G02*
X94110000Y-150892500I0J-237500D01*
G01*
X94110000Y-151367500D01*
G75*
G02*
X93872500Y-151605000I-237500J0D01*
G01*
X93372500Y-151605000D01*
G75*
G02*
X93135000Y-151367500I0J237500D01*
G01*
G37*
%TD.AperFunction*%
%TO.P,R3,1*%
%TO.N,/SD_CMD*%
%TA.AperFunction,SMDPad,CuDef*%
G36*
G01*
X91310000Y-151367500D02*
X91310000Y-150892500D01*
G75*
G02*
X91547500Y-150655000I237500J0D01*
G01*
X92047500Y-150655000D01*
G75*
G02*
X92285000Y-150892500I0J-237500D01*
G01*
X92285000Y-151367500D01*
G75*
G02*
X92047500Y-151605000I-237500J0D01*
G01*
X91547500Y-151605000D01*
G75*
G02*
X91310000Y-151367500I0J237500D01*
G01*
G37*
%TD.AperFunction*%
%TD*%
%TO.P,R2,2*%
%TO.N,+3V3*%
%TA.AperFunction,SMDPad,CuDef*%
G36*
G01*
X93135000Y-147557500D02*
X93135000Y-147082500D01*
G75*
G02*
X93372500Y-146845000I237500J0D01*
G01*
X93872500Y-146845000D01*
G75*
G02*
X94110000Y-147082500I0J-237500D01*
G01*
X94110000Y-147557500D01*
G75*
G02*
X93872500Y-147795000I-237500J0D01*
G01*
X93372500Y-147795000D01*
G75*
G02*
X93135000Y-147557500I0J237500D01*
G01*
G37*
%TD.AperFunction*%
%TO.P,R2,1*%
%TO.N,/SD_DAT3*%
%TA.AperFunction,SMDPad,CuDef*%
G36*
G01*
X91310000Y-147557500D02*
X91310000Y-147082500D01*
G75*
G02*
X91547500Y-146845000I237500J0D01*
G01*
X92047500Y-146845000D01*
G75*
G02*
X92285000Y-147082500I0J-237500D01*
G01*
X92285000Y-147557500D01*
G75*
G02*
X92047500Y-147795000I-237500J0D01*
G01*
X91547500Y-147795000D01*
G75*
G02*
X91310000Y-147557500I0J237500D01*
G01*
G37*
%TD.AperFunction*%
%TD*%
%TO.P,R1,2*%
%TO.N,+3V3*%
%TA.AperFunction,SMDPad,CuDef*%
G36*
G01*
X93135000Y-145652500D02*
X93135000Y-145177500D01*
G75*
G02*
X93372500Y-144940000I237500J0D01*
G01*
X93872500Y-144940000D01*
G75*
G02*
X94110000Y-145177500I0J-237500D01*
G01*
X94110000Y-145652500D01*
G75*
G02*
X93872500Y-145890000I-237500J0D01*
G01*
X93372500Y-145890000D01*
G75*
G02*
X93135000Y-145652500I0J237500D01*
G01*
G37*
%TD.AperFunction*%
%TO.P,R1,1*%
%TO.N,/SD_DAT2*%
%TA.AperFunction,SMDPad,CuDef*%
G36*
G01*
X91310000Y-145652500D02*
X91310000Y-145177500D01*
G75*
G02*
X91547500Y-144940000I237500J0D01*
G01*
X92047500Y-144940000D01*
G75*
G02*
X92285000Y-145177500I0J-237500D01*
G01*
X92285000Y-145652500D01*
G75*
G02*
X92047500Y-145890000I-237500J0D01*
G01*
X91547500Y-145890000D01*
G75*
G02*
X91310000Y-145652500I0J237500D01*
G01*
G37*
%TD.AperFunction*%
%TD*%
D11*
%TO.P,J2,97*%
%TO.N,Net-(J2-Pad97)*%
X118110000Y-46990000D03*
%TO.P,J2,98*%
%TO.N,Net-(J2-Pad98)*%
X115570000Y-46990000D03*
%TO.P,J2,95*%
%TO.N,Net-(J2-Pad95)*%
X118110000Y-49530000D03*
%TO.P,J2,96*%
%TO.N,GND*%
X115570000Y-49530000D03*
%TO.P,J2,93*%
%TO.N,Net-(J2-Pad93)*%
X118110000Y-52070000D03*
%TO.P,J2,94*%
%TO.N,Net-(J2-Pad94)*%
X115570000Y-52070000D03*
%TO.P,J2,91*%
%TO.N,Net-(J2-Pad91)*%
X118110000Y-54610000D03*
%TO.P,J2,92*%
%TO.N,Net-(J2-Pad92)*%
X115570000Y-54610000D03*
%TO.P,J2,89*%
%TO.N,Net-(J2-Pad89)*%
X118110000Y-57150000D03*
%TO.P,J2,90*%
%TO.N,Net-(J2-Pad90)*%
X115570000Y-57150000D03*
%TO.P,J2,87*%
%TO.N,Net-(J2-Pad87)*%
X118110000Y-59690000D03*
%TO.P,J2,88*%
%TO.N,Net-(J2-Pad88)*%
X115570000Y-59690000D03*
%TO.P,J2,85*%
%TO.N,Net-(J2-Pad85)*%
X118110000Y-62230000D03*
%TO.P,J2,86*%
%TO.N,Net-(J2-Pad86)*%
X115570000Y-62230000D03*
%TO.P,J2,83*%
%TO.N,Net-(J2-Pad83)*%
X118110000Y-64770000D03*
%TO.P,J2,84*%
%TO.N,Net-(J2-Pad84)*%
X115570000Y-64770000D03*
%TO.P,J2,81*%
%TO.N,Net-(J2-Pad81)*%
X118110000Y-67310000D03*
%TO.P,J2,82*%
%TO.N,Net-(J2-Pad82)*%
X115570000Y-67310000D03*
%TO.P,J2,79*%
%TO.N,/USB0_DAT5*%
X118110000Y-69850000D03*
%TO.P,J2,80*%
%TO.N,/USB0_DAT6*%
X115570000Y-69850000D03*
%TO.P,J2,77*%
%TO.N,Net-(J2-Pad77)*%
X118110000Y-72390000D03*
%TO.P,J2,78*%
%TO.N,/USB0_DAT7*%
X115570000Y-72390000D03*
%TO.P,J2,75*%
%TO.N,Net-(J2-Pad75)*%
X118110000Y-74930000D03*
%TO.P,J2,76*%
%TO.N,Net-(J2-Pad76)*%
X115570000Y-74930000D03*
%TO.P,J2,73*%
%TO.N,/USB0_DIR*%
X118110000Y-77470000D03*
%TO.P,J2,74*%
%TO.N,Net-(J2-Pad74)*%
X115570000Y-77470000D03*
%TO.P,J2,71*%
%TO.N,/USB0_NXT*%
X118110000Y-80010000D03*
%TO.P,J2,72*%
%TO.N,Net-(J2-Pad72)*%
X115570000Y-80010000D03*
%TO.P,J2,69*%
%TO.N,/USB0_CLK*%
X118110000Y-82550000D03*
%TO.P,J2,70*%
%TO.N,Net-(J2-Pad70)*%
X115570000Y-82550000D03*
%TO.P,J2,67*%
%TO.N,/USB0_STP*%
X118110000Y-85090000D03*
%TO.P,J2,68*%
%TO.N,Net-(J2-Pad68)*%
X115570000Y-85090000D03*
%TO.P,J2,65*%
%TO.N,/USB0_DAT4*%
X118110000Y-87630000D03*
%TO.P,J2,66*%
%TO.N,Net-(J2-Pad66)*%
X115570000Y-87630000D03*
%TO.P,J2,63*%
%TO.N,Net-(J2-Pad63)*%
X118110000Y-90170000D03*
%TO.P,J2,64*%
%TO.N,Net-(J2-Pad64)*%
X115570000Y-90170000D03*
%TO.P,J2,61*%
%TO.N,GND*%
X118110000Y-92710000D03*
%TO.P,J2,62*%
X115570000Y-92710000D03*
%TO.P,J2,59*%
%TO.N,Net-(J2-Pad59)*%
X118110000Y-95250000D03*
%TO.P,J2,60*%
%TO.N,Net-(J2-Pad60)*%
X115570000Y-95250000D03*
%TO.P,J2,57*%
%TO.N,Net-(J2-Pad57)*%
X118110000Y-97790000D03*
%TO.P,J2,58*%
%TO.N,Net-(J2-Pad58)*%
X115570000Y-97790000D03*
%TO.P,J2,55*%
%TO.N,Net-(J2-Pad55)*%
X118110000Y-100330000D03*
%TO.P,J2,56*%
%TO.N,Net-(J2-Pad56)*%
X115570000Y-100330000D03*
%TO.P,J2,53*%
%TO.N,Net-(J2-Pad53)*%
X118110000Y-102870000D03*
%TO.P,J2,54*%
%TO.N,Net-(J2-Pad54)*%
X115570000Y-102870000D03*
%TO.P,J2,51*%
%TO.N,Net-(J2-Pad51)*%
X118110000Y-105410000D03*
%TO.P,J2,52*%
%TO.N,/DATA_FSS*%
X115570000Y-105410000D03*
%TO.P,J2,49*%
%TO.N,/USB0_DAT3*%
X118110000Y-107950000D03*
%TO.P,J2,50*%
%TO.N,/DATA_D1*%
X115570000Y-107950000D03*
%TO.P,J2,47*%
%TO.N,/USB0_DAT2*%
X118110000Y-110490000D03*
%TO.P,J2,48*%
%TO.N,/DATA_D0*%
X115570000Y-110490000D03*
%TO.P,J2,45*%
%TO.N,/USB0_DAT1*%
X118110000Y-113030000D03*
%TO.P,J2,46*%
%TO.N,/DATA_CLK*%
X115570000Y-113030000D03*
%TO.P,J2,43*%
%TO.N,/USB0_DAT0*%
X118110000Y-115570000D03*
%TO.P,J2,44*%
%TO.N,/DATA_D3*%
X115570000Y-115570000D03*
%TO.P,J2,41*%
%TO.N,/USB0_RST*%
X118110000Y-118110000D03*
%TO.P,J2,42*%
%TO.N,/DATA_D2*%
X115570000Y-118110000D03*
%TO.P,J2,39*%
%TO.N,Net-(J2-Pad39)*%
X118110000Y-120650000D03*
%TO.P,J2,40*%
%TO.N,Net-(J2-Pad40)*%
X115570000Y-120650000D03*
%TO.P,J2,37*%
%TO.N,Net-(J2-Pad37)*%
X118110000Y-123190000D03*
%TO.P,J2,38*%
%TO.N,Net-(J2-Pad38)*%
X115570000Y-123190000D03*
%TO.P,J2,35*%
%TO.N,GND*%
X118110000Y-125730000D03*
%TO.P,J2,36*%
X115570000Y-125730000D03*
%TO.P,J2,33*%
%TO.N,Net-(J2-Pad33)*%
X118110000Y-128270000D03*
%TO.P,J2,34*%
%TO.N,Net-(J2-Pad34)*%
X115570000Y-128270000D03*
%TO.P,J2,31*%
%TO.N,Net-(J2-Pad31)*%
X118110000Y-130810000D03*
%TO.P,J2,32*%
%TO.N,Net-(J2-Pad32)*%
X115570000Y-130810000D03*
%TO.P,J2,29*%
%TO.N,Net-(J2-Pad29)*%
X118110000Y-133350000D03*
%TO.P,J2,30*%
%TO.N,Net-(J2-Pad30)*%
X115570000Y-133350000D03*
%TO.P,J2,27*%
%TO.N,Net-(J2-Pad27)*%
X118110000Y-135890000D03*
%TO.P,J2,28*%
%TO.N,Net-(J2-Pad28)*%
X115570000Y-135890000D03*
%TO.P,J2,25*%
%TO.N,Net-(J2-Pad25)*%
X118110000Y-138430000D03*
%TO.P,J2,26*%
%TO.N,Net-(J2-Pad26)*%
X115570000Y-138430000D03*
%TO.P,J2,23*%
%TO.N,Net-(J2-Pad23)*%
X118110000Y-140970000D03*
%TO.P,J2,24*%
%TO.N,/Sig_5*%
X115570000Y-140970000D03*
%TO.P,J2,21*%
%TO.N,Net-(J2-Pad21)*%
X118110000Y-143510000D03*
%TO.P,J2,22*%
%TO.N,/Sig_4*%
X115570000Y-143510000D03*
%TO.P,J2,19*%
%TO.N,Net-(J2-Pad19)*%
X118110000Y-146050000D03*
%TO.P,J2,20*%
%TO.N,/Sig_3*%
X115570000Y-146050000D03*
%TO.P,J2,17*%
%TO.N,Net-(J2-Pad17)*%
X118110000Y-148590000D03*
%TO.P,J2,18*%
%TO.N,/Sig_2*%
X115570000Y-148590000D03*
%TO.P,J2,15*%
%TO.N,Net-(J2-Pad15)*%
X118110000Y-151130000D03*
%TO.P,J2,16*%
%TO.N,/Sig_1*%
X115570000Y-151130000D03*
%TO.P,J2,13*%
%TO.N,Net-(J2-Pad13)*%
X118110000Y-153670000D03*
%TO.P,J2,14*%
%TO.N,/Sig_0*%
X115570000Y-153670000D03*
%TO.P,J2,11*%
%TO.N,Net-(J2-Pad11)*%
X118110000Y-156210000D03*
%TO.P,J2,12*%
%TO.N,/CMD_MISO*%
X115570000Y-156210000D03*
%TO.P,J2,9*%
%TO.N,Net-(J2-Pad9)*%
X118110000Y-158750000D03*
%TO.P,J2,10*%
%TO.N,/CMD_MOSI*%
X115570000Y-158750000D03*
%TO.P,J2,7*%
%TO.N,Net-(J2-Pad7)*%
X118110000Y-161290000D03*
%TO.P,J2,8*%
%TO.N,/CMD_CS*%
X115570000Y-161290000D03*
%TO.P,J2,5*%
%TO.N,Net-(J2-Pad5)*%
X118110000Y-163830000D03*
%TO.P,J2,6*%
%TO.N,/CMD_CLK*%
X115570000Y-163830000D03*
%TO.P,J2,3*%
%TO.N,GND*%
X118110000Y-166370000D03*
%TO.P,J2,4*%
X115570000Y-166370000D03*
%TO.P,J2,1*%
%TO.N,Net-(J2-Pad1)*%
X118110000Y-168910000D03*
%TO.P,J2,2*%
%TO.N,+5V*%
X115570000Y-168910000D03*
%TD*%
D15*
%TO.P,J1,3*%
%TO.N,GND*%
X58420000Y-50800000D03*
%TO.P,J1,2*%
X63500000Y-48260000D03*
%TO.P,J1,1*%
%TO.N,Net-(C1-Pad2)*%
X63500000Y-53340000D03*
%TD*%
D16*
%TO.P,D1,2*%
%TO.N,+5V*%
X72390000Y-172085000D03*
D17*
%TO.P,D1,1*%
%TO.N,Net-(D1-Pad1)*%
X59690000Y-172085000D03*
%TD*%
%TO.P,C5,2*%
%TO.N,GND*%
%TA.AperFunction,SMDPad,CuDef*%
G36*
G01*
X93035000Y-154542500D02*
X93035000Y-154067500D01*
G75*
G02*
X93272500Y-153830000I237500J0D01*
G01*
X93872500Y-153830000D01*
G75*
G02*
X94110000Y-154067500I0J-237500D01*
G01*
X94110000Y-154542500D01*
G75*
G02*
X93872500Y-154780000I-237500J0D01*
G01*
X93272500Y-154780000D01*
G75*
G02*
X93035000Y-154542500I0J237500D01*
G01*
G37*
%TD.AperFunction*%
%TO.P,C5,1*%
%TO.N,+3V3*%
%TA.AperFunction,SMDPad,CuDef*%
G36*
G01*
X91310000Y-154542500D02*
X91310000Y-154067500D01*
G75*
G02*
X91547500Y-153830000I237500J0D01*
G01*
X92147500Y-153830000D01*
G75*
G02*
X92385000Y-154067500I0J-237500D01*
G01*
X92385000Y-154542500D01*
G75*
G02*
X92147500Y-154780000I-237500J0D01*
G01*
X91547500Y-154780000D01*
G75*
G02*
X91310000Y-154542500I0J237500D01*
G01*
G37*
%TD.AperFunction*%
%TD*%
%TO.P,C4,2*%
%TO.N,+3V3*%
%TA.AperFunction,SMDPad,CuDef*%
G36*
G01*
X66985000Y-86122500D02*
X66985000Y-86597500D01*
G75*
G02*
X66747500Y-86835000I-237500J0D01*
G01*
X66147500Y-86835000D01*
G75*
G02*
X65910000Y-86597500I0J237500D01*
G01*
X65910000Y-86122500D01*
G75*
G02*
X66147500Y-85885000I237500J0D01*
G01*
X66747500Y-85885000D01*
G75*
G02*
X66985000Y-86122500I0J-237500D01*
G01*
G37*
%TD.AperFunction*%
%TO.P,C4,1*%
%TO.N,GND*%
%TA.AperFunction,SMDPad,CuDef*%
G36*
G01*
X68710000Y-86122500D02*
X68710000Y-86597500D01*
G75*
G02*
X68472500Y-86835000I-237500J0D01*
G01*
X67872500Y-86835000D01*
G75*
G02*
X67635000Y-86597500I0J237500D01*
G01*
X67635000Y-86122500D01*
G75*
G02*
X67872500Y-85885000I237500J0D01*
G01*
X68472500Y-85885000D01*
G75*
G02*
X68710000Y-86122500I0J-237500D01*
G01*
G37*
%TD.AperFunction*%
%TD*%
%TO.P,C3,2*%
%TO.N,Net-(C1-Pad2)*%
%TA.AperFunction,SMDPad,CuDef*%
G36*
G01*
X66350000Y-77232500D02*
X66350000Y-77707500D01*
G75*
G02*
X66112500Y-77945000I-237500J0D01*
G01*
X65512500Y-77945000D01*
G75*
G02*
X65275000Y-77707500I0J237500D01*
G01*
X65275000Y-77232500D01*
G75*
G02*
X65512500Y-76995000I237500J0D01*
G01*
X66112500Y-76995000D01*
G75*
G02*
X66350000Y-77232500I0J-237500D01*
G01*
G37*
%TD.AperFunction*%
%TO.P,C3,1*%
%TO.N,GND*%
%TA.AperFunction,SMDPad,CuDef*%
G36*
G01*
X68075000Y-77232500D02*
X68075000Y-77707500D01*
G75*
G02*
X67837500Y-77945000I-237500J0D01*
G01*
X67237500Y-77945000D01*
G75*
G02*
X67000000Y-77707500I0J237500D01*
G01*
X67000000Y-77232500D01*
G75*
G02*
X67237500Y-76995000I237500J0D01*
G01*
X67837500Y-76995000D01*
G75*
G02*
X68075000Y-77232500I0J-237500D01*
G01*
G37*
%TD.AperFunction*%
%TD*%
%TO.P,C2,2*%
%TO.N,+5V*%
%TA.AperFunction,SMDPad,CuDef*%
G36*
G01*
X67635000Y-69833500D02*
X67635000Y-69358500D01*
G75*
G02*
X67872500Y-69121000I237500J0D01*
G01*
X68472500Y-69121000D01*
G75*
G02*
X68710000Y-69358500I0J-237500D01*
G01*
X68710000Y-69833500D01*
G75*
G02*
X68472500Y-70071000I-237500J0D01*
G01*
X67872500Y-70071000D01*
G75*
G02*
X67635000Y-69833500I0J237500D01*
G01*
G37*
%TD.AperFunction*%
%TO.P,C2,1*%
%TO.N,GND*%
%TA.AperFunction,SMDPad,CuDef*%
G36*
G01*
X65910000Y-69833500D02*
X65910000Y-69358500D01*
G75*
G02*
X66147500Y-69121000I237500J0D01*
G01*
X66747500Y-69121000D01*
G75*
G02*
X66985000Y-69358500I0J-237500D01*
G01*
X66985000Y-69833500D01*
G75*
G02*
X66747500Y-70071000I-237500J0D01*
G01*
X66147500Y-70071000D01*
G75*
G02*
X65910000Y-69833500I0J237500D01*
G01*
G37*
%TD.AperFunction*%
%TD*%
%TO.P,C1,2*%
%TO.N,Net-(C1-Pad2)*%
%TA.AperFunction,SMDPad,CuDef*%
G36*
G01*
X64445000Y-60722500D02*
X64445000Y-61197500D01*
G75*
G02*
X64207500Y-61435000I-237500J0D01*
G01*
X63607500Y-61435000D01*
G75*
G02*
X63370000Y-61197500I0J237500D01*
G01*
X63370000Y-60722500D01*
G75*
G02*
X63607500Y-60485000I237500J0D01*
G01*
X64207500Y-60485000D01*
G75*
G02*
X64445000Y-60722500I0J-237500D01*
G01*
G37*
%TD.AperFunction*%
%TO.P,C1,1*%
%TO.N,GND*%
%TA.AperFunction,SMDPad,CuDef*%
G36*
G01*
X66170000Y-60722500D02*
X66170000Y-61197500D01*
G75*
G02*
X65932500Y-61435000I-237500J0D01*
G01*
X65332500Y-61435000D01*
G75*
G02*
X65095000Y-61197500I0J237500D01*
G01*
X65095000Y-60722500D01*
G75*
G02*
X65332500Y-60485000I237500J0D01*
G01*
X65932500Y-60485000D01*
G75*
G02*
X66170000Y-60722500I0J-237500D01*
G01*
G37*
%TD.AperFunction*%
%TD*%
D18*
%TO.N,GND*%
X95250000Y-155575000D03*
%TO.N,+5V*%
X71120000Y-116205000D03*
X69215000Y-153670000D03*
%TO.N,+3V3*%
X75565000Y-88265000D03*
X69215000Y-150495000D03*
X93980000Y-160655000D03*
X69215000Y-116205000D03*
X71755000Y-88265000D03*
%TO.N,/USB0_DAT5*%
X92075000Y-70485000D03*
X106680000Y-69850000D03*
%TO.N,/USB0_DAT6*%
X106045000Y-73025000D03*
X89535000Y-72390000D03*
%TO.N,/USB0_DAT7*%
X106680000Y-74295000D03*
X86995000Y-72390000D03*
%TO.N,/USB0_DIR*%
X106680000Y-76200000D03*
X92710000Y-75565000D03*
%TO.N,/USB0_NXT*%
X106680000Y-78740000D03*
X92710000Y-77470000D03*
%TO.N,/USB0_CLK*%
X86995000Y-55245000D03*
X106680000Y-81280000D03*
X86868000Y-76200000D03*
%TO.N,/USB0_STP*%
X106680000Y-83820000D03*
X92710000Y-83820000D03*
%TO.N,/USB0_DAT4*%
X106680000Y-86360000D03*
X94615000Y-85090000D03*
%TO.N,/DATA_FSS*%
X83820000Y-115570000D03*
%TO.N,/USB0_DAT3*%
X111125000Y-105410000D03*
%TO.N,/DATA_D1*%
X99695000Y-111760000D03*
X97155000Y-114300000D03*
X90805000Y-120650000D03*
%TO.N,/USB0_DAT2*%
X109855000Y-102870000D03*
%TO.N,/DATA_D0*%
X101600000Y-111760000D03*
X99060000Y-114300000D03*
X88900000Y-123190000D03*
%TO.N,/USB0_DAT1*%
X108585000Y-100330000D03*
%TO.N,/DATA_CLK*%
X86360000Y-118110000D03*
%TO.N,/USB0_DAT0*%
X107315000Y-97790000D03*
%TO.N,/DATA_D3*%
X77470000Y-128270000D03*
X80645000Y-126365000D03*
X92710000Y-122555000D03*
%TO.N,/USB0_RST*%
X97155000Y-52070000D03*
X106045000Y-105410000D03*
%TO.N,/DATA_D2*%
X81280000Y-127635000D03*
X77470000Y-129540000D03*
X92710000Y-125095000D03*
%TO.N,/Sig_5*%
X92456000Y-117856000D03*
X97536000Y-121920000D03*
%TO.N,/Sig_4*%
X102870000Y-127508000D03*
X104648000Y-129286000D03*
X90170000Y-116840000D03*
X96266000Y-122936000D03*
%TO.N,/Sig_3*%
X63500000Y-122682000D03*
%TO.N,/Sig_2*%
X84582000Y-139700000D03*
X98996500Y-137858500D03*
X100838000Y-139700000D03*
%TO.N,/Sig_1*%
X86106000Y-139446000D03*
X100076000Y-140462000D03*
X96456500Y-137858500D03*
%TO.N,/Sig_0*%
X99060000Y-141732000D03*
X94488000Y-138176000D03*
X87630000Y-138684000D03*
%TO.N,/CMD_MISO*%
X85090000Y-137160000D03*
X92075000Y-142240000D03*
X87630000Y-136525000D03*
X90170000Y-136525000D03*
%TO.N,/CMD_MOSI*%
X89535000Y-150368000D03*
X89535000Y-147320000D03*
X85090000Y-151130000D03*
%TO.N,/CMD_CS*%
X107696000Y-160020000D03*
X81915000Y-133985000D03*
X78105000Y-153670000D03*
X111887000Y-160020000D03*
%TO.N,/CMD_CLK*%
X90170000Y-137795000D03*
X91440000Y-143510000D03*
%TO.N,/SD_DAT2*%
X85852000Y-143764000D03*
X83820000Y-152146000D03*
%TO.N,/SD_DAT3*%
X53340000Y-135890000D03*
X54610000Y-138430000D03*
%TO.N,/SD_CMD*%
X87376000Y-147828000D03*
X84836000Y-145796000D03*
%TO.N,/SD_DAT0*%
X95504000Y-149352000D03*
X85090000Y-149225000D03*
X62865000Y-143510000D03*
X64770000Y-145415000D03*
%TO.N,/SD_DAT1*%
X83185000Y-147955000D03*
X53975000Y-146050000D03*
X53975000Y-140970000D03*
X94488000Y-148844000D03*
%TO.N,/SD_CLK*%
X96520000Y-152908000D03*
X53975000Y-147320000D03*
X65405000Y-137160000D03*
X90170000Y-144145000D03*
%TD*%
D19*
%TO.N,Net-(C1-Pad2)*%
X63500000Y-77470000D02*
X63500000Y-66040000D01*
X63500000Y-81280000D02*
X63500000Y-77470000D01*
X63907500Y-60960000D02*
X63500000Y-60960000D01*
X63500000Y-60960000D02*
X63500000Y-66040000D01*
X63500000Y-53340000D02*
X63500000Y-60960000D01*
X65812500Y-77470000D02*
X63500000Y-77470000D01*
%TO.N,GND*%
X66040000Y-69188500D02*
X66447500Y-69596000D01*
X66040000Y-66040000D02*
X66040000Y-69188500D01*
X65632500Y-60960000D02*
X65632500Y-63092500D01*
X66040000Y-63500000D02*
X66040000Y-66040000D01*
X65632500Y-63092500D02*
X66040000Y-63500000D01*
X68580000Y-78740000D02*
X68580000Y-81280000D01*
X67537500Y-77470000D02*
X68580000Y-78740000D01*
X68580000Y-85952500D02*
X68172500Y-86360000D01*
X68580000Y-81280000D02*
X68580000Y-85952500D01*
D20*
X94842500Y-155575000D02*
X93572500Y-154305000D01*
X95250000Y-155575000D02*
X94842500Y-155575000D01*
D19*
%TO.N,+5V*%
X72390000Y-172085000D02*
X94361000Y-172085000D01*
X97536000Y-168910000D02*
X115570000Y-168910000D01*
X94361000Y-172085000D02*
X97536000Y-168910000D01*
X68580000Y-69188500D02*
X68172500Y-69596000D01*
X68580000Y-66040000D02*
X68580000Y-69188500D01*
D21*
X73660000Y-68580000D02*
X73660000Y-68580000D01*
D19*
X71120000Y-66040000D02*
X68580000Y-66040000D01*
X71120000Y-101600000D02*
X73660000Y-99060000D01*
X73660000Y-99060000D02*
X73660000Y-68580000D01*
X71120000Y-116205000D02*
X71120000Y-101600000D01*
D22*
X104775000Y-46990000D02*
X102235000Y-46990000D01*
D19*
X102235000Y-45085000D02*
X102235000Y-46990000D01*
X100965000Y-43815000D02*
X102235000Y-45085000D01*
X73660000Y-49530000D02*
X79375000Y-43815000D01*
X79375000Y-43815000D02*
X100965000Y-43815000D01*
X73660000Y-64770000D02*
X73660000Y-49530000D01*
X73660000Y-64770000D02*
X71755000Y-66675000D01*
X71755000Y-66675000D02*
X71120000Y-66040000D01*
X73660000Y-68580000D02*
X71755000Y-66675000D01*
X72390000Y-168910000D02*
X72390000Y-172085000D01*
X69215000Y-165735000D02*
X72390000Y-168910000D01*
X69215000Y-153670000D02*
X69215000Y-165735000D01*
D20*
%TO.N,+3V3*%
X91847500Y-155347500D02*
X93980000Y-157480000D01*
X91847500Y-154305000D02*
X91847500Y-155347500D01*
X93622500Y-151384000D02*
X91847500Y-153262500D01*
X91847500Y-153262500D02*
X91847500Y-154305000D01*
D21*
X96242500Y-151130000D02*
X93622500Y-151130000D01*
D20*
X96242500Y-147320000D02*
X93622500Y-147320000D01*
X93622500Y-148312500D02*
X93345000Y-148590000D01*
X93345000Y-150495000D02*
X93345000Y-148590000D01*
X93622500Y-150772500D02*
X93345000Y-150495000D01*
X93622500Y-151384000D02*
X93622500Y-150772500D01*
D19*
X66447500Y-86360000D02*
X66447500Y-84227500D01*
X66040000Y-83820000D02*
X66040000Y-81280000D01*
X66447500Y-84227500D02*
X66040000Y-83820000D01*
D20*
X93622500Y-148312500D02*
X93622500Y-147320000D01*
X93622500Y-145415000D02*
X93622500Y-147320000D01*
D21*
X93980000Y-160655000D02*
X93345000Y-161290000D01*
X93345000Y-161290000D02*
X92710000Y-161925000D01*
X92710000Y-161925000D02*
X88900000Y-161925000D01*
X88900000Y-161925000D02*
X86360000Y-164465000D01*
X86360000Y-164465000D02*
X81915000Y-164465000D01*
X81915000Y-164465000D02*
X79375000Y-167005000D01*
X79375000Y-167005000D02*
X73660000Y-167005000D01*
X73660000Y-167005000D02*
X71755000Y-165100000D01*
X71755000Y-165100000D02*
X71755000Y-153035000D01*
X71755000Y-153035000D02*
X69215000Y-150495000D01*
D19*
X69215000Y-116205000D02*
X69215000Y-101600000D01*
X69215000Y-101600000D02*
X66447500Y-98832500D01*
X66447500Y-86360000D02*
X66447500Y-88492500D01*
X66447500Y-88492500D02*
X66447500Y-89307500D01*
X66447500Y-89307500D02*
X66447500Y-98832500D01*
X69670000Y-89535000D02*
X70485000Y-89535000D01*
X66675000Y-89535000D02*
X69670000Y-89535000D01*
D21*
X66447500Y-89307500D02*
X66675000Y-89535000D01*
D19*
X70485000Y-89535000D02*
X71755000Y-88265000D01*
X71755000Y-88265000D02*
X71755000Y-88265000D01*
X81915000Y-51435000D02*
X78105000Y-55245000D01*
X78105000Y-85725000D02*
X75565000Y-88265000D01*
X78105000Y-55245000D02*
X78105000Y-85725000D01*
X81915000Y-46990000D02*
X81915000Y-51181000D01*
X81915000Y-51181000D02*
X81915000Y-51435000D01*
D21*
X81915000Y-49530000D02*
X81915000Y-51181000D01*
D19*
%TO.N,Net-(D1-Pad1)*%
X59690000Y-163830000D02*
X59690000Y-172085000D01*
D21*
%TO.N,/USB0_DAT5*%
X92075000Y-67945000D02*
X92075000Y-68326000D01*
X93345000Y-66675000D02*
X92075000Y-67945000D01*
X93345000Y-53340000D02*
X93345000Y-66675000D01*
X92075000Y-52070000D02*
X93345000Y-53340000D01*
X92075000Y-49530000D02*
X92075000Y-52070000D01*
X116840000Y-68580000D02*
X118110000Y-69850000D01*
X114300000Y-68580000D02*
X116840000Y-68580000D01*
X113030000Y-69850000D02*
X114300000Y-68580000D01*
X106680000Y-69850000D02*
X113030000Y-69850000D01*
X92075000Y-68326000D02*
X92075000Y-70485000D01*
%TO.N,/USB0_DAT6*%
X115570000Y-69850000D02*
X114935000Y-69850000D01*
X114935000Y-69850000D02*
X113665000Y-71120000D01*
X113665000Y-71120000D02*
X107950000Y-71120000D01*
X107950000Y-71120000D02*
X106680000Y-72390000D01*
X106680000Y-72390000D02*
X106045000Y-73025000D01*
X89535000Y-53340000D02*
X89535000Y-49530000D01*
X90805000Y-54610000D02*
X89535000Y-53340000D01*
X90805000Y-66675000D02*
X90805000Y-54610000D01*
X90043000Y-67437000D02*
X90805000Y-66675000D01*
X89535000Y-68326000D02*
X89535000Y-72390000D01*
X90043000Y-67818000D02*
X89535000Y-68326000D01*
X90043000Y-67437000D02*
X90043000Y-67818000D01*
%TO.N,/USB0_DAT7*%
X86995000Y-67818000D02*
X88265000Y-66548000D01*
X88265000Y-55245000D02*
X88265000Y-66548000D01*
X86995000Y-53975000D02*
X88265000Y-55245000D01*
X86995000Y-49530000D02*
X86995000Y-53975000D01*
X86995000Y-68326000D02*
X86995000Y-67818000D01*
X115570000Y-72390000D02*
X108585000Y-72390000D01*
X108585000Y-72390000D02*
X106680000Y-74295000D01*
X106680000Y-74295000D02*
X106680000Y-74295000D01*
X86995000Y-68326000D02*
X86995000Y-72390000D01*
X86995000Y-72390000D02*
X86995000Y-72390000D01*
%TO.N,/USB0_DIR*%
X94615000Y-65786000D02*
X94615000Y-52705000D01*
X94615000Y-52705000D02*
X93345000Y-51435000D01*
X93345000Y-51435000D02*
X93345000Y-48260000D01*
X93345000Y-48260000D02*
X92075000Y-46990000D01*
X118110000Y-77470000D02*
X116840000Y-76200000D01*
X116840000Y-76200000D02*
X106680000Y-76200000D01*
X106680000Y-76200000D02*
X106680000Y-76200000D01*
X94615000Y-66167000D02*
X94615000Y-65786000D01*
X93345000Y-70485000D02*
X93345000Y-67437000D01*
X92710000Y-71120000D02*
X93345000Y-70485000D01*
X93345000Y-67437000D02*
X94615000Y-66167000D01*
X92710000Y-75565000D02*
X92710000Y-71120000D01*
%TO.N,/USB0_NXT*%
X92075000Y-53975000D02*
X92075000Y-65786000D01*
X90805000Y-52705000D02*
X92075000Y-53975000D01*
X90805000Y-47625000D02*
X90805000Y-52705000D01*
X90170000Y-46990000D02*
X90805000Y-47625000D01*
X89535000Y-46990000D02*
X90170000Y-46990000D01*
X92075000Y-66167000D02*
X92075000Y-65786000D01*
X90805000Y-67437000D02*
X92075000Y-66167000D01*
X90805000Y-70485000D02*
X90805000Y-67437000D01*
X118110000Y-80010000D02*
X116840000Y-78740000D01*
X116840000Y-78740000D02*
X106680000Y-78740000D01*
X106680000Y-78740000D02*
X106680000Y-78740000D01*
X90805000Y-70485000D02*
X90805000Y-75565000D01*
X90805000Y-75565000D02*
X92710000Y-77470000D01*
X92710000Y-77470000D02*
X92710000Y-77470000D01*
%TO.N,/USB0_CLK*%
X86995000Y-65786000D02*
X86995000Y-55245000D01*
X118110000Y-82550000D02*
X116840000Y-81280000D01*
X116840000Y-81280000D02*
X106680000Y-81280000D01*
X106680000Y-81280000D02*
X106680000Y-81280000D01*
X85725000Y-75057000D02*
X86868000Y-76200000D01*
X85725000Y-67056000D02*
X85725000Y-75057000D01*
X86995000Y-65786000D02*
X85725000Y-67056000D01*
%TO.N,/USB0_STP*%
X88265000Y-53975000D02*
X88265000Y-48260000D01*
X89535000Y-55245000D02*
X88265000Y-53975000D01*
X89535000Y-65786000D02*
X89535000Y-55245000D01*
X86995000Y-46990000D02*
X88265000Y-48260000D01*
X118110000Y-85090000D02*
X116840000Y-83820000D01*
X116840000Y-83820000D02*
X106680000Y-83820000D01*
X106680000Y-83820000D02*
X106680000Y-83820000D01*
X89535000Y-66167000D02*
X89535000Y-65786000D01*
X88265000Y-67437000D02*
X89535000Y-66167000D01*
X88265000Y-79375000D02*
X88265000Y-67437000D01*
X92710000Y-83820000D02*
X88265000Y-79375000D01*
%TO.N,/USB0_DAT4*%
X94615000Y-49530000D02*
X95885000Y-50800000D01*
X118110000Y-87630000D02*
X116840000Y-86360000D01*
X116840000Y-86360000D02*
X106680000Y-86360000D01*
X106680000Y-86360000D02*
X106680000Y-86360000D01*
X94615000Y-67945000D02*
X94615000Y-68326000D01*
X95885000Y-66675000D02*
X94615000Y-67945000D01*
X95885000Y-50419000D02*
X95885000Y-66675000D01*
X94615000Y-68326000D02*
X94615000Y-73787000D01*
X94615000Y-73787000D02*
X94615000Y-85090000D01*
X94615000Y-73660000D02*
X94615000Y-73787000D01*
%TO.N,/DATA_FSS*%
X83820000Y-115570000D02*
X74930000Y-115570000D01*
X115570000Y-105410000D02*
X113665000Y-105410000D01*
X113665000Y-105410000D02*
X112939999Y-106135001D01*
X112939999Y-106135001D02*
X112395000Y-106680000D01*
X112395000Y-106680000D02*
X96520000Y-106680000D01*
X87630000Y-115570000D02*
X83820000Y-115570000D01*
X96520000Y-106680000D02*
X87630000Y-115570000D01*
%TO.N,/USB0_DAT3*%
X98425000Y-50800000D02*
X97155000Y-49530000D01*
X98425000Y-66675000D02*
X98425000Y-50800000D01*
X97155000Y-67945000D02*
X98425000Y-66675000D01*
X97155000Y-68326000D02*
X97155000Y-67945000D01*
X97155000Y-69850000D02*
X97155000Y-68326000D01*
X100965000Y-73660000D02*
X97155000Y-69850000D01*
X100965000Y-95250000D02*
X100965000Y-73660000D01*
X111125000Y-105410000D02*
X100965000Y-95250000D01*
%TO.N,/DATA_D1*%
X96520000Y-114935000D02*
X96520000Y-114935000D01*
X103505000Y-107950000D02*
X99695000Y-111760000D01*
X115570000Y-107950000D02*
X103505000Y-107950000D01*
X90805000Y-120650000D02*
X90805000Y-120650000D01*
X97155000Y-114300000D02*
X90805000Y-120650000D01*
X90805000Y-120650000D02*
X74930000Y-120650000D01*
%TO.N,/USB0_DAT2*%
X100965000Y-67056000D02*
X99695000Y-68326000D01*
X100965000Y-64770000D02*
X100965000Y-67056000D01*
X99695000Y-63500000D02*
X100965000Y-64770000D01*
X99695000Y-49530000D02*
X99695000Y-63500000D01*
X102235000Y-71755000D02*
X102235000Y-95250000D01*
X102235000Y-95250000D02*
X109855000Y-102870000D01*
X99695000Y-69215000D02*
X102235000Y-71755000D01*
X99695000Y-68326000D02*
X99695000Y-69215000D01*
%TO.N,/DATA_D0*%
X115570000Y-110490000D02*
X102870000Y-110490000D01*
X102870000Y-110490000D02*
X101600000Y-111760000D01*
X101600000Y-111760000D02*
X101600000Y-111760000D01*
X99060000Y-114300000D02*
X90170000Y-123190000D01*
X90170000Y-123190000D02*
X88900000Y-123190000D01*
X88900000Y-123190000D02*
X74930000Y-123190000D01*
%TO.N,/USB0_DAT1*%
X103505000Y-53340000D02*
X102362000Y-52197000D01*
X102235000Y-67945000D02*
X103505000Y-66675000D01*
X102235000Y-68326000D02*
X102235000Y-67945000D01*
X103505000Y-66675000D02*
X103505000Y-53340000D01*
X103505000Y-71120000D02*
X102235000Y-69850000D01*
X102235000Y-69850000D02*
X102235000Y-68326000D01*
X108585000Y-100330000D02*
X103505000Y-95250000D01*
X103505000Y-95250000D02*
X103505000Y-71120000D01*
X102362000Y-52197000D02*
X102362000Y-49530000D01*
%TO.N,/DATA_CLK*%
X95885000Y-113030000D02*
X115570000Y-113030000D01*
X90805000Y-118110000D02*
X95885000Y-113030000D01*
X86360000Y-118110000D02*
X90805000Y-118110000D01*
X74930000Y-118110000D02*
X86360000Y-118110000D01*
X86360000Y-118110000D02*
X86360000Y-118110000D01*
%TO.N,/USB0_DAT0*%
X104902000Y-49530000D02*
X104902000Y-52197000D01*
X104902000Y-52197000D02*
X106680000Y-53975000D01*
X106680000Y-53975000D02*
X106680000Y-66548000D01*
X106553000Y-66548000D02*
X104775000Y-68326000D01*
X106680000Y-66548000D02*
X106553000Y-66548000D01*
X104775000Y-95250000D02*
X104775000Y-68326000D01*
X107315000Y-97790000D02*
X104775000Y-95250000D01*
%TO.N,/DATA_D3*%
X74930000Y-128270000D02*
X77470000Y-128270000D01*
X77470000Y-128270000D02*
X77470000Y-128270000D01*
X115570000Y-115570000D02*
X99695000Y-115570000D01*
X99695000Y-115570000D02*
X92710000Y-122555000D01*
X88900000Y-126365000D02*
X80645000Y-126365000D01*
X92710000Y-122555000D02*
X88900000Y-126365000D01*
%TO.N,/USB0_RST*%
X97155000Y-52070000D02*
X97155000Y-65786000D01*
X97155000Y-66167000D02*
X97155000Y-65786000D01*
X95885000Y-67437000D02*
X97155000Y-66167000D01*
X95885000Y-70485000D02*
X95885000Y-67437000D01*
X95885000Y-68326000D02*
X95885000Y-70485000D01*
X99695000Y-74295000D02*
X95885000Y-70485000D01*
X99695000Y-95250000D02*
X99695000Y-74295000D01*
X106045000Y-101600000D02*
X99695000Y-95250000D01*
X106045000Y-105410000D02*
X106045000Y-101600000D01*
%TO.N,/DATA_D2*%
X76200000Y-130810000D02*
X77470000Y-129540000D01*
X74930000Y-130810000D02*
X76200000Y-130810000D01*
X81280000Y-127635000D02*
X90170000Y-127635000D01*
X99695000Y-118110000D02*
X115570000Y-118110000D01*
X90170000Y-127635000D02*
X91440000Y-126365000D01*
X91440000Y-126365000D02*
X92710000Y-125095000D01*
X92710000Y-125095000D02*
X99695000Y-118110000D01*
%TO.N,/Sig_5*%
X115370000Y-140970000D02*
X111760000Y-137360000D01*
X115570000Y-140970000D02*
X115370000Y-140970000D01*
X111760000Y-137360000D02*
X111760000Y-130810000D01*
X111760000Y-130810000D02*
X109220000Y-128270000D01*
X101600000Y-130048000D02*
X101600000Y-131445000D01*
X103378000Y-128270000D02*
X101600000Y-130048000D01*
X90932000Y-119380000D02*
X92456000Y-117856000D01*
X72136000Y-119380000D02*
X90932000Y-119380000D01*
X70866000Y-120650000D02*
X72136000Y-119380000D01*
X59690000Y-120650000D02*
X70866000Y-120650000D01*
X97536000Y-121920000D02*
X101854000Y-126238000D01*
X101854000Y-126238000D02*
X103886000Y-126238000D01*
X103886000Y-126238000D02*
X104902000Y-127254000D01*
X104902000Y-127254000D02*
X104902000Y-128270000D01*
X104902000Y-128270000D02*
X103378000Y-128270000D01*
X109220000Y-128270000D02*
X104902000Y-128270000D01*
%TO.N,/Sig_4*%
X115570000Y-143510000D02*
X115316000Y-143510000D01*
X115316000Y-143510000D02*
X109474000Y-137668000D01*
X109474000Y-137668000D02*
X109474000Y-130556000D01*
X109474000Y-130556000D02*
X109474000Y-130556000D01*
X99060000Y-130302000D02*
X99060000Y-131445000D01*
X59690000Y-118110000D02*
X71882000Y-118110000D01*
X71882000Y-118110000D02*
X72136000Y-118110000D01*
X72136000Y-118110000D02*
X73406000Y-116840000D01*
X73406000Y-116840000D02*
X90170000Y-116840000D01*
X90170000Y-116840000D02*
X90170000Y-116840000D01*
X96266000Y-122936000D02*
X101346000Y-128016000D01*
X101346000Y-128016000D02*
X99060000Y-130302000D01*
X101854000Y-127508000D02*
X101346000Y-128016000D01*
X108204000Y-129286000D02*
X109474000Y-130556000D01*
X104648000Y-129286000D02*
X108204000Y-129286000D01*
X101854000Y-127508000D02*
X102870000Y-127508000D01*
%TO.N,/Sig_3*%
X101600000Y-133985000D02*
X101600000Y-137795000D01*
X101600000Y-137795000D02*
X109855000Y-146050000D01*
X109855000Y-146050000D02*
X110236000Y-146050000D01*
X115570000Y-146050000D02*
X109855000Y-146050000D01*
X101600000Y-137795000D02*
X98425000Y-140970000D01*
X73025000Y-134620000D02*
X78232000Y-134620000D01*
X71120000Y-132715000D02*
X73025000Y-134620000D01*
X78232000Y-134620000D02*
X84582000Y-140970000D01*
X98425000Y-140970000D02*
X84582000Y-140970000D01*
X63500000Y-125095000D02*
X73025000Y-134620000D01*
X63500000Y-122682000D02*
X63500000Y-125095000D01*
%TO.N,/Sig_2*%
X99060000Y-133985000D02*
X99060000Y-137795000D01*
X99060000Y-137795000D02*
X98996500Y-137858500D01*
X109855000Y-148590000D02*
X115570000Y-148590000D01*
X109728000Y-148590000D02*
X109855000Y-148590000D01*
X100838000Y-139700000D02*
X109728000Y-148590000D01*
X85217000Y-140335000D02*
X84582000Y-139700000D01*
X96520000Y-140335000D02*
X85217000Y-140335000D01*
X98996500Y-137858500D02*
X96520000Y-140335000D01*
%TO.N,/Sig_1*%
X96520000Y-137795000D02*
X96456500Y-137858500D01*
X96520000Y-133985000D02*
X96520000Y-137795000D01*
X115570000Y-151130000D02*
X110744000Y-151130000D01*
X110744000Y-151130000D02*
X100076000Y-140462000D01*
X100076000Y-140462000D02*
X100076000Y-140462000D01*
X87376000Y-139446000D02*
X86106000Y-139446000D01*
X87630000Y-139700000D02*
X87376000Y-139446000D01*
X94615000Y-139700000D02*
X87630000Y-139700000D01*
X96456500Y-137858500D02*
X94615000Y-139700000D01*
%TO.N,/Sig_0*%
X93980000Y-133985000D02*
X93980000Y-135890000D01*
X93218000Y-136906000D02*
X92964000Y-136906000D01*
X92964000Y-136906000D02*
X90805000Y-139065000D01*
X94488000Y-138176000D02*
X93218000Y-136906000D01*
X93980000Y-135890000D02*
X92964000Y-136906000D01*
X110998000Y-153670000D02*
X99060000Y-141732000D01*
X115570000Y-153670000D02*
X110998000Y-153670000D01*
X87630000Y-138684000D02*
X88646000Y-138684000D01*
X89027000Y-139065000D02*
X90805000Y-139065000D01*
X88646000Y-138684000D02*
X89027000Y-139065000D01*
%TO.N,/CMD_MISO*%
X74930000Y-133350000D02*
X76835000Y-133350000D01*
X76835000Y-133350000D02*
X78105000Y-133350000D01*
X91440000Y-135255000D02*
X91440000Y-133985000D01*
X115570000Y-156210000D02*
X112395000Y-156210000D01*
X99060000Y-142875000D02*
X92710000Y-142875000D01*
X112395000Y-156210000D02*
X99060000Y-142875000D01*
X92710000Y-142875000D02*
X92075000Y-142240000D01*
X87630000Y-136525000D02*
X90170000Y-136525000D01*
X90170000Y-136525000D02*
X91440000Y-135255000D01*
X81915000Y-137160000D02*
X85090000Y-137160000D01*
X78105000Y-133350000D02*
X81915000Y-137160000D01*
%TO.N,/CMD_MOSI*%
X89535000Y-150368000D02*
X89535000Y-147955000D01*
X89535000Y-147955000D02*
X89535000Y-147320000D01*
X89535000Y-147320000D02*
X89535000Y-147320000D01*
X74930000Y-151130000D02*
X85090000Y-151130000D01*
%TO.N,/CMD_CS*%
X106680000Y-160020000D02*
X106680000Y-160020000D01*
X78105000Y-153670000D02*
X78105000Y-153670000D01*
X83820000Y-133985000D02*
X81915000Y-133985000D01*
X81915000Y-133985000D02*
X81915000Y-133985000D01*
X78105000Y-153670000D02*
X74930000Y-153670000D01*
X81280000Y-156845000D02*
X78105000Y-153670000D01*
X81280000Y-161290000D02*
X81280000Y-156845000D01*
X82550000Y-162560000D02*
X81280000Y-161290000D01*
X85725000Y-162560000D02*
X82550000Y-162560000D01*
X88265000Y-160020000D02*
X85725000Y-162560000D01*
X92075000Y-160020000D02*
X88265000Y-160020000D01*
X92710000Y-159385000D02*
X92075000Y-160020000D01*
X95250000Y-159385000D02*
X92710000Y-159385000D01*
X95885000Y-160020000D02*
X95250000Y-159385000D01*
X107696000Y-160020000D02*
X95885000Y-160020000D01*
X113157000Y-161290000D02*
X115570000Y-161290000D01*
X111887000Y-160020000D02*
X113157000Y-161290000D01*
%TO.N,/CMD_CLK*%
X113030000Y-163830000D02*
X106680000Y-157480000D01*
X115570000Y-163830000D02*
X113030000Y-163830000D01*
X91440000Y-143510000D02*
X91440000Y-143510000D01*
X91440000Y-143510000D02*
X96520000Y-143510000D01*
X96520000Y-143510000D02*
X98425000Y-143510000D01*
X98425000Y-143510000D02*
X106680000Y-151765000D01*
X106680000Y-151765000D02*
X106680000Y-157480000D01*
X91440000Y-143510000D02*
X91567000Y-143510000D01*
X81915000Y-135890000D02*
X86360000Y-135890000D01*
X80264000Y-134239000D02*
X81915000Y-135890000D01*
X80264000Y-128524000D02*
X80264000Y-134239000D01*
X77470000Y-125730000D02*
X80264000Y-128524000D01*
X74930000Y-125730000D02*
X77470000Y-125730000D01*
X86360000Y-133985000D02*
X86360000Y-135890000D01*
X86995000Y-137795000D02*
X90170000Y-137795000D01*
X86360000Y-137160000D02*
X86995000Y-137795000D01*
X86360000Y-135890000D02*
X86360000Y-137160000D01*
%TO.N,/SD_DAT2*%
X91797500Y-145415000D02*
X87503000Y-145415000D01*
X80518000Y-138430000D02*
X80772000Y-138684000D01*
X74930000Y-138430000D02*
X80518000Y-138430000D01*
X87503000Y-145415000D02*
X80772000Y-138684000D01*
X83820000Y-153773500D02*
X83820000Y-152146000D01*
X83820000Y-152146000D02*
X83820000Y-152146000D01*
X63500000Y-138430000D02*
X74930000Y-138430000D01*
X62230000Y-137160000D02*
X63500000Y-138430000D01*
X48260000Y-137160000D02*
X62230000Y-137160000D01*
%TO.N,/SD_DAT3*%
X86360000Y-147828000D02*
X86360000Y-152757500D01*
X86360000Y-147320000D02*
X86360000Y-147828000D01*
X86360000Y-146812000D02*
X86360000Y-147320000D01*
X54610000Y-138430000D02*
X54610000Y-138430000D01*
X52070000Y-134620000D02*
X53340000Y-135890000D01*
X50800000Y-134620000D02*
X52070000Y-134620000D01*
X86360000Y-146050000D02*
X86360000Y-146812000D01*
X81280000Y-140970000D02*
X86360000Y-146050000D01*
X74930000Y-140970000D02*
X81280000Y-140970000D01*
X86741000Y-146050000D02*
X86360000Y-146050000D01*
X90170000Y-146050000D02*
X86741000Y-146050000D01*
X91440000Y-147320000D02*
X90170000Y-146050000D01*
X91797500Y-147320000D02*
X91440000Y-147320000D01*
X48260000Y-134620000D02*
X50800000Y-134620000D01*
X62865000Y-140970000D02*
X74930000Y-140970000D01*
X61595000Y-139700000D02*
X62865000Y-140970000D01*
X55880000Y-139700000D02*
X61595000Y-139700000D01*
X54610000Y-138430000D02*
X55880000Y-139700000D01*
%TO.N,/SD_CMD*%
X91543500Y-151384000D02*
X91797500Y-151130000D01*
X88900000Y-151384000D02*
X91543500Y-151384000D01*
X88900000Y-152757500D02*
X88900000Y-151384000D01*
X88900000Y-151384000D02*
X87376000Y-149860000D01*
X87376000Y-149860000D02*
X87376000Y-147828000D01*
X87376000Y-147828000D02*
X87376000Y-147828000D01*
X87376000Y-147828000D02*
X87376000Y-147828000D01*
X82550000Y-143510000D02*
X84836000Y-145796000D01*
X74930000Y-143510000D02*
X82550000Y-143510000D01*
X64770000Y-143510000D02*
X74930000Y-143510000D01*
X63500000Y-144780000D02*
X64770000Y-143510000D01*
X48260000Y-144780000D02*
X63500000Y-144780000D01*
%TO.N,/SD_DAT0*%
X101600000Y-152400000D02*
X101600000Y-152757500D01*
X99695000Y-150495000D02*
X99060000Y-151130000D01*
X99695000Y-150495000D02*
X99695000Y-150495000D01*
X99060000Y-151130000D02*
X98067500Y-151130000D01*
X99695000Y-150495000D02*
X101600000Y-152400000D01*
X97028000Y-149352000D02*
X95504000Y-149352000D01*
X98552000Y-149352000D02*
X97028000Y-149352000D01*
X99695000Y-150495000D02*
X98552000Y-149352000D01*
X85090000Y-149225000D02*
X85090000Y-149225000D01*
X62865000Y-143510000D02*
X62865000Y-143510000D01*
X64770000Y-145415000D02*
X69215000Y-145415000D01*
X69850000Y-146050000D02*
X74930000Y-146050000D01*
X69215000Y-145415000D02*
X69850000Y-146050000D01*
X84391500Y-148526500D02*
X85090000Y-149225000D01*
X84391500Y-146875500D02*
X84391500Y-148526500D01*
X83566000Y-146050000D02*
X84391500Y-146875500D01*
X74930000Y-146050000D02*
X83566000Y-146050000D01*
X61595000Y-142240000D02*
X62865000Y-143510000D01*
X48260000Y-142240000D02*
X61595000Y-142240000D01*
%TO.N,/SD_DAT1*%
X104140000Y-152400000D02*
X104140000Y-152757500D01*
X100330000Y-148590000D02*
X104140000Y-152400000D01*
X98067500Y-147320000D02*
X99060000Y-147320000D01*
X99695000Y-147955000D02*
X99695000Y-148590000D01*
X99060000Y-147320000D02*
X99695000Y-147955000D01*
X99695000Y-148590000D02*
X100330000Y-148590000D01*
X74930000Y-148590000D02*
X70485000Y-148590000D01*
X70485000Y-148590000D02*
X62865000Y-148590000D01*
X62865000Y-148590000D02*
X61595000Y-147320000D01*
X61595000Y-147320000D02*
X56515000Y-147320000D01*
X56515000Y-147320000D02*
X55245000Y-147320000D01*
X55245000Y-147320000D02*
X53975000Y-146050000D01*
X53975000Y-146050000D02*
X53975000Y-146050000D01*
X53975000Y-140970000D02*
X53975000Y-140970000D01*
X52705000Y-139700000D02*
X53975000Y-140970000D01*
X48260000Y-139700000D02*
X52705000Y-139700000D01*
X74930000Y-148590000D02*
X80010000Y-148590000D01*
X80010000Y-148590000D02*
X80645000Y-147955000D01*
X80645000Y-147955000D02*
X83185000Y-147955000D01*
X94488000Y-148844000D02*
X94488000Y-148717000D01*
X94615000Y-148590000D02*
X99695000Y-148590000D01*
X94488000Y-148717000D02*
X94615000Y-148590000D01*
%TO.N,Net-(R6-Pad2)*%
X83820000Y-155598500D02*
X83820000Y-160020000D01*
%TO.N,Net-(R7-Pad2)*%
X86360000Y-154582500D02*
X86360000Y-157480000D01*
%TO.N,Net-(R8-Pad2)*%
X88900000Y-154582500D02*
X88900000Y-157480000D01*
%TO.N,Net-(R9-Pad2)*%
X101600000Y-154582500D02*
X101600000Y-157480000D01*
%TO.N,Net-(R10-Pad2)*%
X104140000Y-157480000D02*
X104140000Y-154582500D01*
%TO.N,/SD_CLK*%
X96520000Y-152908000D02*
X96520000Y-153670000D01*
X96520000Y-153670000D02*
X96520000Y-157480000D01*
X50800000Y-147320000D02*
X53975000Y-147320000D01*
X53975000Y-147320000D02*
X53975000Y-147320000D01*
X66675000Y-135890000D02*
X65405000Y-137160000D01*
X74930000Y-135890000D02*
X66675000Y-135890000D01*
X78740000Y-135890000D02*
X74930000Y-135890000D01*
X85598000Y-142748000D02*
X78740000Y-135890000D01*
X86233000Y-142748000D02*
X85598000Y-142748000D01*
X87630000Y-144145000D02*
X86233000Y-142748000D01*
X90170000Y-144145000D02*
X87630000Y-144145000D01*
X48260000Y-147320000D02*
X50800000Y-147320000D01*
%TD*%
M02*
