%TF.GenerationSoftware,KiCad,Pcbnew,(5.1.9)-1*%
%TF.CreationDate,2021-10-09T15:43:02-04:00*%
%TF.ProjectId,4wire_sd_breakout,34776972-655f-4736-945f-627265616b6f,rev?*%
%TF.SameCoordinates,Original*%
%TF.FileFunction,Soldermask,Bot*%
%TF.FilePolarity,Negative*%
%FSLAX46Y46*%
G04 Gerber Fmt 4.6, Leading zero omitted, Abs format (unit mm)*
G04 Created by KiCad (PCBNEW (5.1.9)-1) date 2021-10-09 15:43:02*
%MOMM*%
%LPD*%
G01*
G04 APERTURE LIST*
%ADD10C,1.524000*%
%ADD11O,1.800000X1.400000*%
%ADD12O,1.400000X1.800000*%
%ADD13O,1.905000X2.000000*%
%ADD14R,1.905000X2.000000*%
%ADD15C,2.400000*%
%ADD16O,1.800000X1.800000*%
%ADD17R,1.800000X1.800000*%
G04 APERTURE END LIST*
D10*
%TO.C,U6*%
X83820000Y-160020000D03*
X104140000Y-157480000D03*
X101600000Y-157480000D03*
X99060000Y-157480000D03*
X96520000Y-157480000D03*
X93980000Y-157480000D03*
X91440000Y-157480000D03*
X88900000Y-157480000D03*
X86360000Y-157480000D03*
%TD*%
D11*
%TO.C,U4*%
X59690000Y-163830000D03*
X74930000Y-163830000D03*
X59690000Y-161290000D03*
X74930000Y-161290000D03*
X59690000Y-158750000D03*
X74930000Y-158750000D03*
X59690000Y-156210000D03*
X74930000Y-156210000D03*
X59690000Y-153670000D03*
X74930000Y-153670000D03*
X59690000Y-151130000D03*
X74930000Y-151130000D03*
X59690000Y-148590000D03*
X74930000Y-148590000D03*
X59690000Y-146050000D03*
X74930000Y-146050000D03*
X59690000Y-143510000D03*
X74930000Y-143510000D03*
X59690000Y-140970000D03*
X74930000Y-140970000D03*
X59690000Y-138430000D03*
X74930000Y-138430000D03*
X59690000Y-135890000D03*
X74930000Y-135890000D03*
X59690000Y-133350000D03*
X74930000Y-133350000D03*
X59690000Y-130810000D03*
X74930000Y-130810000D03*
X59690000Y-128270000D03*
X74930000Y-128270000D03*
X59690000Y-125730000D03*
X74930000Y-125730000D03*
X59690000Y-123190000D03*
X74930000Y-123190000D03*
X59690000Y-120650000D03*
X74930000Y-120650000D03*
X59690000Y-118110000D03*
X74930000Y-118110000D03*
X59690000Y-115570000D03*
X74930000Y-115570000D03*
X59690000Y-113030000D03*
X74930000Y-113030000D03*
X59690000Y-110490000D03*
X74930000Y-110490000D03*
X59690000Y-107950000D03*
X74930000Y-107950000D03*
X59690000Y-105410000D03*
X74930000Y-105410000D03*
%TD*%
D12*
%TO.C,U8*%
X81915000Y-65786000D03*
X81915000Y-68326000D03*
X84455000Y-65786000D03*
X84455000Y-68326000D03*
X86995000Y-65786000D03*
X86995000Y-68326000D03*
X89535000Y-65786000D03*
X89535000Y-68326000D03*
X92075000Y-65786000D03*
X92075000Y-68326000D03*
X94615000Y-65786000D03*
X94615000Y-68326000D03*
X97155000Y-65786000D03*
X97155000Y-68326000D03*
X99695000Y-65786000D03*
X99695000Y-68326000D03*
X102235000Y-65786000D03*
X102235000Y-68326000D03*
X104775000Y-65786000D03*
X104775000Y-68326000D03*
%TD*%
%TO.C,U7*%
X81915000Y-46990000D03*
X81915000Y-49530000D03*
X84455000Y-46990000D03*
X84455000Y-49530000D03*
X86995000Y-46990000D03*
X86995000Y-49530000D03*
X89535000Y-46990000D03*
X89535000Y-49530000D03*
X92075000Y-46990000D03*
X92075000Y-49530000D03*
X94615000Y-46990000D03*
X94615000Y-49530000D03*
X97155000Y-46990000D03*
X97155000Y-49530000D03*
X99695000Y-46990000D03*
X99695000Y-49530000D03*
X102235000Y-46990000D03*
X102235000Y-49530000D03*
X104775000Y-46990000D03*
X104775000Y-49530000D03*
%TD*%
%TO.C,U5*%
X106680000Y-133985000D03*
X106680000Y-131445000D03*
X104140000Y-133985000D03*
X104140000Y-131445000D03*
X101600000Y-133985000D03*
X101600000Y-131445000D03*
X99060000Y-133985000D03*
X99060000Y-131445000D03*
X96520000Y-133985000D03*
X96520000Y-131445000D03*
X93980000Y-133985000D03*
X93980000Y-131445000D03*
X91440000Y-133985000D03*
X91440000Y-131445000D03*
X88900000Y-133985000D03*
X88900000Y-131445000D03*
X86360000Y-133985000D03*
X86360000Y-131445000D03*
X83820000Y-133985000D03*
X83820000Y-131445000D03*
%TD*%
D11*
%TO.C,U3*%
X48260000Y-124460000D03*
X45720000Y-124460000D03*
X48260000Y-127000000D03*
X45720000Y-127000000D03*
X48260000Y-129540000D03*
X45720000Y-129540000D03*
X48260000Y-132080000D03*
X45720000Y-132080000D03*
X48260000Y-134620000D03*
X45720000Y-134620000D03*
X48260000Y-137160000D03*
X45720000Y-137160000D03*
X48260000Y-139700000D03*
X45720000Y-139700000D03*
X48260000Y-142240000D03*
X45720000Y-142240000D03*
X48260000Y-144780000D03*
X45720000Y-144780000D03*
X48260000Y-147320000D03*
X45720000Y-147320000D03*
%TD*%
D13*
%TO.C,U2*%
X63500000Y-81280000D03*
X66040000Y-81280000D03*
D14*
X68580000Y-81280000D03*
%TD*%
D13*
%TO.C,U1*%
X68580000Y-66040000D03*
X66040000Y-66040000D03*
D14*
X63500000Y-66040000D03*
%TD*%
D11*
%TO.C,J2*%
X118110000Y-46990000D03*
X115570000Y-46990000D03*
X118110000Y-49530000D03*
X115570000Y-49530000D03*
X118110000Y-52070000D03*
X115570000Y-52070000D03*
X118110000Y-54610000D03*
X115570000Y-54610000D03*
X118110000Y-57150000D03*
X115570000Y-57150000D03*
X118110000Y-59690000D03*
X115570000Y-59690000D03*
X118110000Y-62230000D03*
X115570000Y-62230000D03*
X118110000Y-64770000D03*
X115570000Y-64770000D03*
X118110000Y-67310000D03*
X115570000Y-67310000D03*
X118110000Y-69850000D03*
X115570000Y-69850000D03*
X118110000Y-72390000D03*
X115570000Y-72390000D03*
X118110000Y-74930000D03*
X115570000Y-74930000D03*
X118110000Y-77470000D03*
X115570000Y-77470000D03*
X118110000Y-80010000D03*
X115570000Y-80010000D03*
X118110000Y-82550000D03*
X115570000Y-82550000D03*
X118110000Y-85090000D03*
X115570000Y-85090000D03*
X118110000Y-87630000D03*
X115570000Y-87630000D03*
X118110000Y-90170000D03*
X115570000Y-90170000D03*
X118110000Y-92710000D03*
X115570000Y-92710000D03*
X118110000Y-95250000D03*
X115570000Y-95250000D03*
X118110000Y-97790000D03*
X115570000Y-97790000D03*
X118110000Y-100330000D03*
X115570000Y-100330000D03*
X118110000Y-102870000D03*
X115570000Y-102870000D03*
X118110000Y-105410000D03*
X115570000Y-105410000D03*
X118110000Y-107950000D03*
X115570000Y-107950000D03*
X118110000Y-110490000D03*
X115570000Y-110490000D03*
X118110000Y-113030000D03*
X115570000Y-113030000D03*
X118110000Y-115570000D03*
X115570000Y-115570000D03*
X118110000Y-118110000D03*
X115570000Y-118110000D03*
X118110000Y-120650000D03*
X115570000Y-120650000D03*
X118110000Y-123190000D03*
X115570000Y-123190000D03*
X118110000Y-125730000D03*
X115570000Y-125730000D03*
X118110000Y-128270000D03*
X115570000Y-128270000D03*
X118110000Y-130810000D03*
X115570000Y-130810000D03*
X118110000Y-133350000D03*
X115570000Y-133350000D03*
X118110000Y-135890000D03*
X115570000Y-135890000D03*
X118110000Y-138430000D03*
X115570000Y-138430000D03*
X118110000Y-140970000D03*
X115570000Y-140970000D03*
X118110000Y-143510000D03*
X115570000Y-143510000D03*
X118110000Y-146050000D03*
X115570000Y-146050000D03*
X118110000Y-148590000D03*
X115570000Y-148590000D03*
X118110000Y-151130000D03*
X115570000Y-151130000D03*
X118110000Y-153670000D03*
X115570000Y-153670000D03*
X118110000Y-156210000D03*
X115570000Y-156210000D03*
X118110000Y-158750000D03*
X115570000Y-158750000D03*
X118110000Y-161290000D03*
X115570000Y-161290000D03*
X118110000Y-163830000D03*
X115570000Y-163830000D03*
X118110000Y-166370000D03*
X115570000Y-166370000D03*
X118110000Y-168910000D03*
X115570000Y-168910000D03*
%TD*%
D15*
%TO.C,J1*%
X58420000Y-50800000D03*
X63500000Y-48260000D03*
X63500000Y-53340000D03*
%TD*%
D16*
%TO.C,D1*%
X72390000Y-172085000D03*
D17*
X59690000Y-172085000D03*
%TD*%
M02*
