%TF.GenerationSoftware,KiCad,Pcbnew,(5.1.9)-1*%
%TF.CreationDate,2021-10-09T15:43:02-04:00*%
%TF.ProjectId,4wire_sd_breakout,34776972-655f-4736-945f-627265616b6f,rev?*%
%TF.SameCoordinates,Original*%
%TF.FileFunction,Soldermask,Top*%
%TF.FilePolarity,Negative*%
%FSLAX46Y46*%
G04 Gerber Fmt 4.6, Leading zero omitted, Abs format (unit mm)*
G04 Created by KiCad (PCBNEW (5.1.9)-1) date 2021-10-09 15:43:02*
%MOMM*%
%LPD*%
G01*
G04 APERTURE LIST*
%ADD10C,1.524000*%
%ADD11O,1.800000X1.400000*%
%ADD12O,1.400000X1.800000*%
%ADD13O,1.905000X2.000000*%
%ADD14R,1.905000X2.000000*%
%ADD15C,2.400000*%
%ADD16O,1.800000X1.800000*%
%ADD17R,1.800000X1.800000*%
G04 APERTURE END LIST*
%TO.C,R6*%
G36*
G01*
X83582500Y-155111000D02*
X84057500Y-155111000D01*
G75*
G02*
X84295000Y-155348500I0J-237500D01*
G01*
X84295000Y-155848500D01*
G75*
G02*
X84057500Y-156086000I-237500J0D01*
G01*
X83582500Y-156086000D01*
G75*
G02*
X83345000Y-155848500I0J237500D01*
G01*
X83345000Y-155348500D01*
G75*
G02*
X83582500Y-155111000I237500J0D01*
G01*
G37*
G36*
G01*
X83582500Y-153286000D02*
X84057500Y-153286000D01*
G75*
G02*
X84295000Y-153523500I0J-237500D01*
G01*
X84295000Y-154023500D01*
G75*
G02*
X84057500Y-154261000I-237500J0D01*
G01*
X83582500Y-154261000D01*
G75*
G02*
X83345000Y-154023500I0J237500D01*
G01*
X83345000Y-153523500D01*
G75*
G02*
X83582500Y-153286000I237500J0D01*
G01*
G37*
%TD*%
D10*
%TO.C,U6*%
X83820000Y-160020000D03*
X104140000Y-157480000D03*
X101600000Y-157480000D03*
X99060000Y-157480000D03*
X96520000Y-157480000D03*
X93980000Y-157480000D03*
X91440000Y-157480000D03*
X88900000Y-157480000D03*
X86360000Y-157480000D03*
%TD*%
D11*
%TO.C,U4*%
X59690000Y-163830000D03*
X74930000Y-163830000D03*
X59690000Y-161290000D03*
X74930000Y-161290000D03*
X59690000Y-158750000D03*
X74930000Y-158750000D03*
X59690000Y-156210000D03*
X74930000Y-156210000D03*
X59690000Y-153670000D03*
X74930000Y-153670000D03*
X59690000Y-151130000D03*
X74930000Y-151130000D03*
X59690000Y-148590000D03*
X74930000Y-148590000D03*
X59690000Y-146050000D03*
X74930000Y-146050000D03*
X59690000Y-143510000D03*
X74930000Y-143510000D03*
X59690000Y-140970000D03*
X74930000Y-140970000D03*
X59690000Y-138430000D03*
X74930000Y-138430000D03*
X59690000Y-135890000D03*
X74930000Y-135890000D03*
X59690000Y-133350000D03*
X74930000Y-133350000D03*
X59690000Y-130810000D03*
X74930000Y-130810000D03*
X59690000Y-128270000D03*
X74930000Y-128270000D03*
X59690000Y-125730000D03*
X74930000Y-125730000D03*
X59690000Y-123190000D03*
X74930000Y-123190000D03*
X59690000Y-120650000D03*
X74930000Y-120650000D03*
X59690000Y-118110000D03*
X74930000Y-118110000D03*
X59690000Y-115570000D03*
X74930000Y-115570000D03*
X59690000Y-113030000D03*
X74930000Y-113030000D03*
X59690000Y-110490000D03*
X74930000Y-110490000D03*
X59690000Y-107950000D03*
X74930000Y-107950000D03*
X59690000Y-105410000D03*
X74930000Y-105410000D03*
%TD*%
D12*
%TO.C,U8*%
X81915000Y-65786000D03*
X81915000Y-68326000D03*
X84455000Y-65786000D03*
X84455000Y-68326000D03*
X86995000Y-65786000D03*
X86995000Y-68326000D03*
X89535000Y-65786000D03*
X89535000Y-68326000D03*
X92075000Y-65786000D03*
X92075000Y-68326000D03*
X94615000Y-65786000D03*
X94615000Y-68326000D03*
X97155000Y-65786000D03*
X97155000Y-68326000D03*
X99695000Y-65786000D03*
X99695000Y-68326000D03*
X102235000Y-65786000D03*
X102235000Y-68326000D03*
X104775000Y-65786000D03*
X104775000Y-68326000D03*
%TD*%
%TO.C,U7*%
X81915000Y-46990000D03*
X81915000Y-49530000D03*
X84455000Y-46990000D03*
X84455000Y-49530000D03*
X86995000Y-46990000D03*
X86995000Y-49530000D03*
X89535000Y-46990000D03*
X89535000Y-49530000D03*
X92075000Y-46990000D03*
X92075000Y-49530000D03*
X94615000Y-46990000D03*
X94615000Y-49530000D03*
X97155000Y-46990000D03*
X97155000Y-49530000D03*
X99695000Y-46990000D03*
X99695000Y-49530000D03*
X102235000Y-46990000D03*
X102235000Y-49530000D03*
X104775000Y-46990000D03*
X104775000Y-49530000D03*
%TD*%
%TO.C,U5*%
X106680000Y-133985000D03*
X106680000Y-131445000D03*
X104140000Y-133985000D03*
X104140000Y-131445000D03*
X101600000Y-133985000D03*
X101600000Y-131445000D03*
X99060000Y-133985000D03*
X99060000Y-131445000D03*
X96520000Y-133985000D03*
X96520000Y-131445000D03*
X93980000Y-133985000D03*
X93980000Y-131445000D03*
X91440000Y-133985000D03*
X91440000Y-131445000D03*
X88900000Y-133985000D03*
X88900000Y-131445000D03*
X86360000Y-133985000D03*
X86360000Y-131445000D03*
X83820000Y-133985000D03*
X83820000Y-131445000D03*
%TD*%
D11*
%TO.C,U3*%
X48260000Y-124460000D03*
X45720000Y-124460000D03*
X48260000Y-127000000D03*
X45720000Y-127000000D03*
X48260000Y-129540000D03*
X45720000Y-129540000D03*
X48260000Y-132080000D03*
X45720000Y-132080000D03*
X48260000Y-134620000D03*
X45720000Y-134620000D03*
X48260000Y-137160000D03*
X45720000Y-137160000D03*
X48260000Y-139700000D03*
X45720000Y-139700000D03*
X48260000Y-142240000D03*
X45720000Y-142240000D03*
X48260000Y-144780000D03*
X45720000Y-144780000D03*
X48260000Y-147320000D03*
X45720000Y-147320000D03*
%TD*%
D13*
%TO.C,U2*%
X63500000Y-81280000D03*
X66040000Y-81280000D03*
D14*
X68580000Y-81280000D03*
%TD*%
D13*
%TO.C,U1*%
X68580000Y-66040000D03*
X66040000Y-66040000D03*
D14*
X63500000Y-66040000D03*
%TD*%
%TO.C,R10*%
G36*
G01*
X103902500Y-154095000D02*
X104377500Y-154095000D01*
G75*
G02*
X104615000Y-154332500I0J-237500D01*
G01*
X104615000Y-154832500D01*
G75*
G02*
X104377500Y-155070000I-237500J0D01*
G01*
X103902500Y-155070000D01*
G75*
G02*
X103665000Y-154832500I0J237500D01*
G01*
X103665000Y-154332500D01*
G75*
G02*
X103902500Y-154095000I237500J0D01*
G01*
G37*
G36*
G01*
X103902500Y-152270000D02*
X104377500Y-152270000D01*
G75*
G02*
X104615000Y-152507500I0J-237500D01*
G01*
X104615000Y-153007500D01*
G75*
G02*
X104377500Y-153245000I-237500J0D01*
G01*
X103902500Y-153245000D01*
G75*
G02*
X103665000Y-153007500I0J237500D01*
G01*
X103665000Y-152507500D01*
G75*
G02*
X103902500Y-152270000I237500J0D01*
G01*
G37*
%TD*%
%TO.C,R9*%
G36*
G01*
X101362500Y-154095000D02*
X101837500Y-154095000D01*
G75*
G02*
X102075000Y-154332500I0J-237500D01*
G01*
X102075000Y-154832500D01*
G75*
G02*
X101837500Y-155070000I-237500J0D01*
G01*
X101362500Y-155070000D01*
G75*
G02*
X101125000Y-154832500I0J237500D01*
G01*
X101125000Y-154332500D01*
G75*
G02*
X101362500Y-154095000I237500J0D01*
G01*
G37*
G36*
G01*
X101362500Y-152270000D02*
X101837500Y-152270000D01*
G75*
G02*
X102075000Y-152507500I0J-237500D01*
G01*
X102075000Y-153007500D01*
G75*
G02*
X101837500Y-153245000I-237500J0D01*
G01*
X101362500Y-153245000D01*
G75*
G02*
X101125000Y-153007500I0J237500D01*
G01*
X101125000Y-152507500D01*
G75*
G02*
X101362500Y-152270000I237500J0D01*
G01*
G37*
%TD*%
%TO.C,R8*%
G36*
G01*
X88662500Y-154095000D02*
X89137500Y-154095000D01*
G75*
G02*
X89375000Y-154332500I0J-237500D01*
G01*
X89375000Y-154832500D01*
G75*
G02*
X89137500Y-155070000I-237500J0D01*
G01*
X88662500Y-155070000D01*
G75*
G02*
X88425000Y-154832500I0J237500D01*
G01*
X88425000Y-154332500D01*
G75*
G02*
X88662500Y-154095000I237500J0D01*
G01*
G37*
G36*
G01*
X88662500Y-152270000D02*
X89137500Y-152270000D01*
G75*
G02*
X89375000Y-152507500I0J-237500D01*
G01*
X89375000Y-153007500D01*
G75*
G02*
X89137500Y-153245000I-237500J0D01*
G01*
X88662500Y-153245000D01*
G75*
G02*
X88425000Y-153007500I0J237500D01*
G01*
X88425000Y-152507500D01*
G75*
G02*
X88662500Y-152270000I237500J0D01*
G01*
G37*
%TD*%
%TO.C,R7*%
G36*
G01*
X86122500Y-154095000D02*
X86597500Y-154095000D01*
G75*
G02*
X86835000Y-154332500I0J-237500D01*
G01*
X86835000Y-154832500D01*
G75*
G02*
X86597500Y-155070000I-237500J0D01*
G01*
X86122500Y-155070000D01*
G75*
G02*
X85885000Y-154832500I0J237500D01*
G01*
X85885000Y-154332500D01*
G75*
G02*
X86122500Y-154095000I237500J0D01*
G01*
G37*
G36*
G01*
X86122500Y-152270000D02*
X86597500Y-152270000D01*
G75*
G02*
X86835000Y-152507500I0J-237500D01*
G01*
X86835000Y-153007500D01*
G75*
G02*
X86597500Y-153245000I-237500J0D01*
G01*
X86122500Y-153245000D01*
G75*
G02*
X85885000Y-153007500I0J237500D01*
G01*
X85885000Y-152507500D01*
G75*
G02*
X86122500Y-152270000I237500J0D01*
G01*
G37*
%TD*%
%TO.C,R5*%
G36*
G01*
X96730000Y-147082500D02*
X96730000Y-147557500D01*
G75*
G02*
X96492500Y-147795000I-237500J0D01*
G01*
X95992500Y-147795000D01*
G75*
G02*
X95755000Y-147557500I0J237500D01*
G01*
X95755000Y-147082500D01*
G75*
G02*
X95992500Y-146845000I237500J0D01*
G01*
X96492500Y-146845000D01*
G75*
G02*
X96730000Y-147082500I0J-237500D01*
G01*
G37*
G36*
G01*
X98555000Y-147082500D02*
X98555000Y-147557500D01*
G75*
G02*
X98317500Y-147795000I-237500J0D01*
G01*
X97817500Y-147795000D01*
G75*
G02*
X97580000Y-147557500I0J237500D01*
G01*
X97580000Y-147082500D01*
G75*
G02*
X97817500Y-146845000I237500J0D01*
G01*
X98317500Y-146845000D01*
G75*
G02*
X98555000Y-147082500I0J-237500D01*
G01*
G37*
%TD*%
%TO.C,R4*%
G36*
G01*
X96730000Y-150892500D02*
X96730000Y-151367500D01*
G75*
G02*
X96492500Y-151605000I-237500J0D01*
G01*
X95992500Y-151605000D01*
G75*
G02*
X95755000Y-151367500I0J237500D01*
G01*
X95755000Y-150892500D01*
G75*
G02*
X95992500Y-150655000I237500J0D01*
G01*
X96492500Y-150655000D01*
G75*
G02*
X96730000Y-150892500I0J-237500D01*
G01*
G37*
G36*
G01*
X98555000Y-150892500D02*
X98555000Y-151367500D01*
G75*
G02*
X98317500Y-151605000I-237500J0D01*
G01*
X97817500Y-151605000D01*
G75*
G02*
X97580000Y-151367500I0J237500D01*
G01*
X97580000Y-150892500D01*
G75*
G02*
X97817500Y-150655000I237500J0D01*
G01*
X98317500Y-150655000D01*
G75*
G02*
X98555000Y-150892500I0J-237500D01*
G01*
G37*
%TD*%
%TO.C,R3*%
G36*
G01*
X93135000Y-151367500D02*
X93135000Y-150892500D01*
G75*
G02*
X93372500Y-150655000I237500J0D01*
G01*
X93872500Y-150655000D01*
G75*
G02*
X94110000Y-150892500I0J-237500D01*
G01*
X94110000Y-151367500D01*
G75*
G02*
X93872500Y-151605000I-237500J0D01*
G01*
X93372500Y-151605000D01*
G75*
G02*
X93135000Y-151367500I0J237500D01*
G01*
G37*
G36*
G01*
X91310000Y-151367500D02*
X91310000Y-150892500D01*
G75*
G02*
X91547500Y-150655000I237500J0D01*
G01*
X92047500Y-150655000D01*
G75*
G02*
X92285000Y-150892500I0J-237500D01*
G01*
X92285000Y-151367500D01*
G75*
G02*
X92047500Y-151605000I-237500J0D01*
G01*
X91547500Y-151605000D01*
G75*
G02*
X91310000Y-151367500I0J237500D01*
G01*
G37*
%TD*%
%TO.C,R2*%
G36*
G01*
X93135000Y-147557500D02*
X93135000Y-147082500D01*
G75*
G02*
X93372500Y-146845000I237500J0D01*
G01*
X93872500Y-146845000D01*
G75*
G02*
X94110000Y-147082500I0J-237500D01*
G01*
X94110000Y-147557500D01*
G75*
G02*
X93872500Y-147795000I-237500J0D01*
G01*
X93372500Y-147795000D01*
G75*
G02*
X93135000Y-147557500I0J237500D01*
G01*
G37*
G36*
G01*
X91310000Y-147557500D02*
X91310000Y-147082500D01*
G75*
G02*
X91547500Y-146845000I237500J0D01*
G01*
X92047500Y-146845000D01*
G75*
G02*
X92285000Y-147082500I0J-237500D01*
G01*
X92285000Y-147557500D01*
G75*
G02*
X92047500Y-147795000I-237500J0D01*
G01*
X91547500Y-147795000D01*
G75*
G02*
X91310000Y-147557500I0J237500D01*
G01*
G37*
%TD*%
%TO.C,R1*%
G36*
G01*
X93135000Y-145652500D02*
X93135000Y-145177500D01*
G75*
G02*
X93372500Y-144940000I237500J0D01*
G01*
X93872500Y-144940000D01*
G75*
G02*
X94110000Y-145177500I0J-237500D01*
G01*
X94110000Y-145652500D01*
G75*
G02*
X93872500Y-145890000I-237500J0D01*
G01*
X93372500Y-145890000D01*
G75*
G02*
X93135000Y-145652500I0J237500D01*
G01*
G37*
G36*
G01*
X91310000Y-145652500D02*
X91310000Y-145177500D01*
G75*
G02*
X91547500Y-144940000I237500J0D01*
G01*
X92047500Y-144940000D01*
G75*
G02*
X92285000Y-145177500I0J-237500D01*
G01*
X92285000Y-145652500D01*
G75*
G02*
X92047500Y-145890000I-237500J0D01*
G01*
X91547500Y-145890000D01*
G75*
G02*
X91310000Y-145652500I0J237500D01*
G01*
G37*
%TD*%
D11*
%TO.C,J2*%
X118110000Y-46990000D03*
X115570000Y-46990000D03*
X118110000Y-49530000D03*
X115570000Y-49530000D03*
X118110000Y-52070000D03*
X115570000Y-52070000D03*
X118110000Y-54610000D03*
X115570000Y-54610000D03*
X118110000Y-57150000D03*
X115570000Y-57150000D03*
X118110000Y-59690000D03*
X115570000Y-59690000D03*
X118110000Y-62230000D03*
X115570000Y-62230000D03*
X118110000Y-64770000D03*
X115570000Y-64770000D03*
X118110000Y-67310000D03*
X115570000Y-67310000D03*
X118110000Y-69850000D03*
X115570000Y-69850000D03*
X118110000Y-72390000D03*
X115570000Y-72390000D03*
X118110000Y-74930000D03*
X115570000Y-74930000D03*
X118110000Y-77470000D03*
X115570000Y-77470000D03*
X118110000Y-80010000D03*
X115570000Y-80010000D03*
X118110000Y-82550000D03*
X115570000Y-82550000D03*
X118110000Y-85090000D03*
X115570000Y-85090000D03*
X118110000Y-87630000D03*
X115570000Y-87630000D03*
X118110000Y-90170000D03*
X115570000Y-90170000D03*
X118110000Y-92710000D03*
X115570000Y-92710000D03*
X118110000Y-95250000D03*
X115570000Y-95250000D03*
X118110000Y-97790000D03*
X115570000Y-97790000D03*
X118110000Y-100330000D03*
X115570000Y-100330000D03*
X118110000Y-102870000D03*
X115570000Y-102870000D03*
X118110000Y-105410000D03*
X115570000Y-105410000D03*
X118110000Y-107950000D03*
X115570000Y-107950000D03*
X118110000Y-110490000D03*
X115570000Y-110490000D03*
X118110000Y-113030000D03*
X115570000Y-113030000D03*
X118110000Y-115570000D03*
X115570000Y-115570000D03*
X118110000Y-118110000D03*
X115570000Y-118110000D03*
X118110000Y-120650000D03*
X115570000Y-120650000D03*
X118110000Y-123190000D03*
X115570000Y-123190000D03*
X118110000Y-125730000D03*
X115570000Y-125730000D03*
X118110000Y-128270000D03*
X115570000Y-128270000D03*
X118110000Y-130810000D03*
X115570000Y-130810000D03*
X118110000Y-133350000D03*
X115570000Y-133350000D03*
X118110000Y-135890000D03*
X115570000Y-135890000D03*
X118110000Y-138430000D03*
X115570000Y-138430000D03*
X118110000Y-140970000D03*
X115570000Y-140970000D03*
X118110000Y-143510000D03*
X115570000Y-143510000D03*
X118110000Y-146050000D03*
X115570000Y-146050000D03*
X118110000Y-148590000D03*
X115570000Y-148590000D03*
X118110000Y-151130000D03*
X115570000Y-151130000D03*
X118110000Y-153670000D03*
X115570000Y-153670000D03*
X118110000Y-156210000D03*
X115570000Y-156210000D03*
X118110000Y-158750000D03*
X115570000Y-158750000D03*
X118110000Y-161290000D03*
X115570000Y-161290000D03*
X118110000Y-163830000D03*
X115570000Y-163830000D03*
X118110000Y-166370000D03*
X115570000Y-166370000D03*
X118110000Y-168910000D03*
X115570000Y-168910000D03*
%TD*%
D15*
%TO.C,J1*%
X58420000Y-50800000D03*
X63500000Y-48260000D03*
X63500000Y-53340000D03*
%TD*%
D16*
%TO.C,D1*%
X72390000Y-172085000D03*
D17*
X59690000Y-172085000D03*
%TD*%
%TO.C,C5*%
G36*
G01*
X93035000Y-154542500D02*
X93035000Y-154067500D01*
G75*
G02*
X93272500Y-153830000I237500J0D01*
G01*
X93872500Y-153830000D01*
G75*
G02*
X94110000Y-154067500I0J-237500D01*
G01*
X94110000Y-154542500D01*
G75*
G02*
X93872500Y-154780000I-237500J0D01*
G01*
X93272500Y-154780000D01*
G75*
G02*
X93035000Y-154542500I0J237500D01*
G01*
G37*
G36*
G01*
X91310000Y-154542500D02*
X91310000Y-154067500D01*
G75*
G02*
X91547500Y-153830000I237500J0D01*
G01*
X92147500Y-153830000D01*
G75*
G02*
X92385000Y-154067500I0J-237500D01*
G01*
X92385000Y-154542500D01*
G75*
G02*
X92147500Y-154780000I-237500J0D01*
G01*
X91547500Y-154780000D01*
G75*
G02*
X91310000Y-154542500I0J237500D01*
G01*
G37*
%TD*%
%TO.C,C4*%
G36*
G01*
X66985000Y-86122500D02*
X66985000Y-86597500D01*
G75*
G02*
X66747500Y-86835000I-237500J0D01*
G01*
X66147500Y-86835000D01*
G75*
G02*
X65910000Y-86597500I0J237500D01*
G01*
X65910000Y-86122500D01*
G75*
G02*
X66147500Y-85885000I237500J0D01*
G01*
X66747500Y-85885000D01*
G75*
G02*
X66985000Y-86122500I0J-237500D01*
G01*
G37*
G36*
G01*
X68710000Y-86122500D02*
X68710000Y-86597500D01*
G75*
G02*
X68472500Y-86835000I-237500J0D01*
G01*
X67872500Y-86835000D01*
G75*
G02*
X67635000Y-86597500I0J237500D01*
G01*
X67635000Y-86122500D01*
G75*
G02*
X67872500Y-85885000I237500J0D01*
G01*
X68472500Y-85885000D01*
G75*
G02*
X68710000Y-86122500I0J-237500D01*
G01*
G37*
%TD*%
%TO.C,C3*%
G36*
G01*
X66350000Y-77232500D02*
X66350000Y-77707500D01*
G75*
G02*
X66112500Y-77945000I-237500J0D01*
G01*
X65512500Y-77945000D01*
G75*
G02*
X65275000Y-77707500I0J237500D01*
G01*
X65275000Y-77232500D01*
G75*
G02*
X65512500Y-76995000I237500J0D01*
G01*
X66112500Y-76995000D01*
G75*
G02*
X66350000Y-77232500I0J-237500D01*
G01*
G37*
G36*
G01*
X68075000Y-77232500D02*
X68075000Y-77707500D01*
G75*
G02*
X67837500Y-77945000I-237500J0D01*
G01*
X67237500Y-77945000D01*
G75*
G02*
X67000000Y-77707500I0J237500D01*
G01*
X67000000Y-77232500D01*
G75*
G02*
X67237500Y-76995000I237500J0D01*
G01*
X67837500Y-76995000D01*
G75*
G02*
X68075000Y-77232500I0J-237500D01*
G01*
G37*
%TD*%
%TO.C,C2*%
G36*
G01*
X67635000Y-69833500D02*
X67635000Y-69358500D01*
G75*
G02*
X67872500Y-69121000I237500J0D01*
G01*
X68472500Y-69121000D01*
G75*
G02*
X68710000Y-69358500I0J-237500D01*
G01*
X68710000Y-69833500D01*
G75*
G02*
X68472500Y-70071000I-237500J0D01*
G01*
X67872500Y-70071000D01*
G75*
G02*
X67635000Y-69833500I0J237500D01*
G01*
G37*
G36*
G01*
X65910000Y-69833500D02*
X65910000Y-69358500D01*
G75*
G02*
X66147500Y-69121000I237500J0D01*
G01*
X66747500Y-69121000D01*
G75*
G02*
X66985000Y-69358500I0J-237500D01*
G01*
X66985000Y-69833500D01*
G75*
G02*
X66747500Y-70071000I-237500J0D01*
G01*
X66147500Y-70071000D01*
G75*
G02*
X65910000Y-69833500I0J237500D01*
G01*
G37*
%TD*%
%TO.C,C1*%
G36*
G01*
X64445000Y-60722500D02*
X64445000Y-61197500D01*
G75*
G02*
X64207500Y-61435000I-237500J0D01*
G01*
X63607500Y-61435000D01*
G75*
G02*
X63370000Y-61197500I0J237500D01*
G01*
X63370000Y-60722500D01*
G75*
G02*
X63607500Y-60485000I237500J0D01*
G01*
X64207500Y-60485000D01*
G75*
G02*
X64445000Y-60722500I0J-237500D01*
G01*
G37*
G36*
G01*
X66170000Y-60722500D02*
X66170000Y-61197500D01*
G75*
G02*
X65932500Y-61435000I-237500J0D01*
G01*
X65332500Y-61435000D01*
G75*
G02*
X65095000Y-61197500I0J237500D01*
G01*
X65095000Y-60722500D01*
G75*
G02*
X65332500Y-60485000I237500J0D01*
G01*
X65932500Y-60485000D01*
G75*
G02*
X66170000Y-60722500I0J-237500D01*
G01*
G37*
%TD*%
M02*
