%TF.GenerationSoftware,KiCad,Pcbnew,(5.1.9)-1*%
%TF.CreationDate,2021-10-09T15:43:02-04:00*%
%TF.ProjectId,4wire_sd_breakout,34776972-655f-4736-945f-627265616b6f,rev?*%
%TF.SameCoordinates,Original*%
%TF.FileFunction,Legend,Top*%
%TF.FilePolarity,Positive*%
%FSLAX46Y46*%
G04 Gerber Fmt 4.6, Leading zero omitted, Abs format (unit mm)*
G04 Created by KiCad (PCBNEW (5.1.9)-1) date 2021-10-09 15:43:02*
%MOMM*%
%LPD*%
G01*
G04 APERTURE LIST*
%ADD10C,0.120000*%
%ADD11C,0.150000*%
G04 APERTURE END LIST*
D10*
%TO.C,R6*%
X83297500Y-154431276D02*
X83297500Y-154940724D01*
X84342500Y-154431276D02*
X84342500Y-154940724D01*
%TO.C,U6*%
X106680000Y-160020000D02*
X106680000Y-175260000D01*
X86360000Y-160020000D02*
X106680000Y-160020000D01*
X83820000Y-162560000D02*
X83820000Y-175260000D01*
X86360000Y-160020000D02*
X83820000Y-162560000D01*
%TO.C,U4*%
X58340001Y-104060000D02*
X58340000Y-165180000D01*
X58340000Y-165180000D02*
X76279999Y-165180000D01*
X76279999Y-165180000D02*
X76280000Y-104060000D01*
X76280000Y-104060000D02*
X70300000Y-104060000D01*
X70300000Y-104060000D02*
X70300000Y-104420000D01*
X70300000Y-104420000D02*
X64320001Y-104420000D01*
X64320001Y-104420000D02*
X64320001Y-104060000D01*
X64320001Y-104060000D02*
X58340001Y-104060000D01*
%TO.C,U8*%
X93853000Y-64770000D02*
X93853000Y-64386000D01*
X92837000Y-64770000D02*
X93853000Y-64770000D01*
X92837000Y-64386000D02*
X92837000Y-64770000D01*
X80715000Y-64386000D02*
X92837000Y-64386000D01*
X105975000Y-66166001D02*
X105975000Y-64386001D01*
X105975000Y-67946000D02*
X105975000Y-66166001D01*
X105975000Y-69726000D02*
X105975000Y-67946000D01*
X80715000Y-69725999D02*
X105975000Y-69726000D01*
X80715000Y-64386000D02*
X80715000Y-69725999D01*
X105975000Y-64386001D02*
X93853000Y-64386000D01*
%TO.C,U7*%
X93853000Y-45974000D02*
X93853000Y-45590000D01*
X92837000Y-45974000D02*
X93853000Y-45974000D01*
X92837000Y-45590000D02*
X92837000Y-45974000D01*
X80715000Y-45590000D02*
X92837000Y-45590000D01*
X105975000Y-47370001D02*
X105975000Y-45590001D01*
X105975000Y-49150000D02*
X105975000Y-47370001D01*
X105975000Y-50930000D02*
X105975000Y-49150000D01*
X80715000Y-50929999D02*
X105975000Y-50930000D01*
X80715000Y-45590000D02*
X80715000Y-50929999D01*
X105975000Y-45590001D02*
X93853000Y-45590000D01*
%TO.C,U5*%
X94742000Y-135001000D02*
X94742000Y-135385000D01*
X95758000Y-135001000D02*
X94742000Y-135001000D01*
X95758000Y-135385000D02*
X95758000Y-135001000D01*
X107880000Y-135385000D02*
X95758000Y-135385000D01*
X82620000Y-133604999D02*
X82620000Y-135384999D01*
X82620000Y-131825000D02*
X82620000Y-133604999D01*
X82620000Y-130045000D02*
X82620000Y-131825000D01*
X107880000Y-130045001D02*
X82620000Y-130045000D01*
X107880000Y-135385000D02*
X107880000Y-130045001D01*
X82620000Y-135384999D02*
X94742000Y-135385000D01*
%TO.C,U3*%
X49276000Y-136398000D02*
X49660000Y-136398000D01*
X49276000Y-135382000D02*
X49276000Y-136398000D01*
X49660000Y-135382000D02*
X49276000Y-135382000D01*
X49660000Y-123260000D02*
X49660000Y-135382000D01*
X47879999Y-148520000D02*
X49659999Y-148520000D01*
X46100000Y-148520000D02*
X47879999Y-148520000D01*
X44320000Y-148520000D02*
X46100000Y-148520000D01*
X44320001Y-123260000D02*
X44320000Y-148520000D01*
X49660000Y-123260000D02*
X44320001Y-123260000D01*
X49659999Y-148520000D02*
X49660000Y-136398000D01*
%TO.C,U2*%
X64189000Y-84550000D02*
X64189000Y-83040000D01*
X67890000Y-84550000D02*
X67890000Y-83040000D01*
X71160000Y-83040000D02*
X60920000Y-83040000D01*
X60920000Y-84550000D02*
X60920000Y-79909000D01*
X71160000Y-84550000D02*
X71160000Y-79909000D01*
X71160000Y-79909000D02*
X60920000Y-79909000D01*
X71160000Y-84550000D02*
X60920000Y-84550000D01*
%TO.C,U1*%
X67891000Y-62770000D02*
X67891000Y-64280000D01*
X64190000Y-62770000D02*
X64190000Y-64280000D01*
X60920000Y-64280000D02*
X71160000Y-64280000D01*
X71160000Y-62770000D02*
X71160000Y-67411000D01*
X60920000Y-62770000D02*
X60920000Y-67411000D01*
X60920000Y-67411000D02*
X71160000Y-67411000D01*
X60920000Y-62770000D02*
X71160000Y-62770000D01*
%TO.C,R10*%
X103617500Y-153415276D02*
X103617500Y-153924724D01*
X104662500Y-153415276D02*
X104662500Y-153924724D01*
%TO.C,R9*%
X101077500Y-153415276D02*
X101077500Y-153924724D01*
X102122500Y-153415276D02*
X102122500Y-153924724D01*
%TO.C,R8*%
X88377500Y-153415276D02*
X88377500Y-153924724D01*
X89422500Y-153415276D02*
X89422500Y-153924724D01*
%TO.C,R7*%
X85837500Y-153415276D02*
X85837500Y-153924724D01*
X86882500Y-153415276D02*
X86882500Y-153924724D01*
%TO.C,R5*%
X97409724Y-146797500D02*
X96900276Y-146797500D01*
X97409724Y-147842500D02*
X96900276Y-147842500D01*
%TO.C,R4*%
X97409724Y-150607500D02*
X96900276Y-150607500D01*
X97409724Y-151652500D02*
X96900276Y-151652500D01*
%TO.C,R3*%
X92455276Y-151652500D02*
X92964724Y-151652500D01*
X92455276Y-150607500D02*
X92964724Y-150607500D01*
%TO.C,R2*%
X92455276Y-147842500D02*
X92964724Y-147842500D01*
X92455276Y-146797500D02*
X92964724Y-146797500D01*
%TO.C,R1*%
X92455276Y-145937500D02*
X92964724Y-145937500D01*
X92455276Y-144892500D02*
X92964724Y-144892500D01*
%TO.C,J2*%
X117729999Y-170110000D02*
X119509999Y-170110000D01*
X117729999Y-169750000D02*
X117729999Y-170110000D01*
X115950000Y-169750000D02*
X117729999Y-169750000D01*
X115950000Y-170110000D02*
X115950000Y-169750000D01*
X114170000Y-170110000D02*
X115950000Y-170110000D01*
X114170001Y-45790000D02*
X114170000Y-170110000D01*
X119510000Y-45790000D02*
X114170001Y-45790000D01*
X119509999Y-170110000D02*
X119510000Y-45790000D01*
%TO.C,J1*%
X68580000Y-41910000D02*
X58420000Y-41910000D01*
X58420000Y-48260000D02*
X58420000Y-48895000D01*
X66040000Y-53340000D02*
X65405000Y-53340000D01*
X58420000Y-53340000D02*
X58420000Y-52705000D01*
X68580000Y-41910000D02*
X68580000Y-53340000D01*
X60960000Y-53340000D02*
X58420000Y-53340000D01*
X68580000Y-53340000D02*
X66040000Y-53340000D01*
X58420000Y-41910000D02*
X58420000Y-48260000D01*
%TO.C,D1*%
X64100000Y-170615000D02*
X64100000Y-173555000D01*
X64340000Y-170615000D02*
X64340000Y-173555000D01*
X64220000Y-170615000D02*
X64220000Y-173555000D01*
X71250000Y-172085000D02*
X68760000Y-172085000D01*
X60830000Y-172085000D02*
X63320000Y-172085000D01*
X68760000Y-170615000D02*
X63320000Y-170615000D01*
X68760000Y-173555000D02*
X68760000Y-170615000D01*
X63320000Y-173555000D02*
X68760000Y-173555000D01*
X63320000Y-170615000D02*
X63320000Y-173555000D01*
%TO.C,C5*%
X92563733Y-154815000D02*
X92856267Y-154815000D01*
X92563733Y-153795000D02*
X92856267Y-153795000D01*
%TO.C,C4*%
X67456267Y-85850000D02*
X67163733Y-85850000D01*
X67456267Y-86870000D02*
X67163733Y-86870000D01*
%TO.C,C3*%
X66821267Y-76960000D02*
X66528733Y-76960000D01*
X66821267Y-77980000D02*
X66528733Y-77980000D01*
%TO.C,C2*%
X67163733Y-70106000D02*
X67456267Y-70106000D01*
X67163733Y-69086000D02*
X67456267Y-69086000D01*
%TO.C,C1*%
X64916267Y-60450000D02*
X64623733Y-60450000D01*
X64916267Y-61470000D02*
X64623733Y-61470000D01*
%TO.C,U6*%
D11*
X107804857Y-163536380D02*
X107804857Y-164345904D01*
X107877428Y-164441142D01*
X107950000Y-164488761D01*
X108095142Y-164536380D01*
X108385428Y-164536380D01*
X108530571Y-164488761D01*
X108603142Y-164441142D01*
X108675714Y-164345904D01*
X108675714Y-163536380D01*
X110054571Y-163536380D02*
X109764285Y-163536380D01*
X109619142Y-163584000D01*
X109546571Y-163631619D01*
X109401428Y-163774476D01*
X109328857Y-163964952D01*
X109328857Y-164345904D01*
X109401428Y-164441142D01*
X109474000Y-164488761D01*
X109619142Y-164536380D01*
X109909428Y-164536380D01*
X110054571Y-164488761D01*
X110127142Y-164441142D01*
X110199714Y-164345904D01*
X110199714Y-164107809D01*
X110127142Y-164012571D01*
X110054571Y-163964952D01*
X109909428Y-163917333D01*
X109619142Y-163917333D01*
X109474000Y-163964952D01*
X109401428Y-164012571D01*
X109328857Y-164107809D01*
%TO.C,U4*%
X66548095Y-102512380D02*
X66548095Y-103321904D01*
X66595714Y-103417142D01*
X66643333Y-103464761D01*
X66738571Y-103512380D01*
X66929047Y-103512380D01*
X67024285Y-103464761D01*
X67071904Y-103417142D01*
X67119523Y-103321904D01*
X67119523Y-102512380D01*
X68024285Y-102845714D02*
X68024285Y-103512380D01*
X67786190Y-102464761D02*
X67548095Y-103179047D01*
X68167142Y-103179047D01*
%TO.C,U8*%
X80518095Y-62444380D02*
X80518095Y-63253904D01*
X80565714Y-63349142D01*
X80613333Y-63396761D01*
X80708571Y-63444380D01*
X80899047Y-63444380D01*
X80994285Y-63396761D01*
X81041904Y-63349142D01*
X81089523Y-63253904D01*
X81089523Y-62444380D01*
X81708571Y-62872952D02*
X81613333Y-62825333D01*
X81565714Y-62777714D01*
X81518095Y-62682476D01*
X81518095Y-62634857D01*
X81565714Y-62539619D01*
X81613333Y-62492000D01*
X81708571Y-62444380D01*
X81899047Y-62444380D01*
X81994285Y-62492000D01*
X82041904Y-62539619D01*
X82089523Y-62634857D01*
X82089523Y-62682476D01*
X82041904Y-62777714D01*
X81994285Y-62825333D01*
X81899047Y-62872952D01*
X81708571Y-62872952D01*
X81613333Y-62920571D01*
X81565714Y-62968190D01*
X81518095Y-63063428D01*
X81518095Y-63253904D01*
X81565714Y-63349142D01*
X81613333Y-63396761D01*
X81708571Y-63444380D01*
X81899047Y-63444380D01*
X81994285Y-63396761D01*
X82041904Y-63349142D01*
X82089523Y-63253904D01*
X82089523Y-63063428D01*
X82041904Y-62968190D01*
X81994285Y-62920571D01*
X81899047Y-62872952D01*
%TO.C,U7*%
X106934095Y-48220380D02*
X106934095Y-49029904D01*
X106981714Y-49125142D01*
X107029333Y-49172761D01*
X107124571Y-49220380D01*
X107315047Y-49220380D01*
X107410285Y-49172761D01*
X107457904Y-49125142D01*
X107505523Y-49029904D01*
X107505523Y-48220380D01*
X107886476Y-48220380D02*
X108553142Y-48220380D01*
X108124571Y-49220380D01*
%TO.C,U5*%
X82550095Y-128484380D02*
X82550095Y-129293904D01*
X82597714Y-129389142D01*
X82645333Y-129436761D01*
X82740571Y-129484380D01*
X82931047Y-129484380D01*
X83026285Y-129436761D01*
X83073904Y-129389142D01*
X83121523Y-129293904D01*
X83121523Y-128484380D01*
X84073904Y-128484380D02*
X83597714Y-128484380D01*
X83550095Y-128960571D01*
X83597714Y-128912952D01*
X83692952Y-128865333D01*
X83931047Y-128865333D01*
X84026285Y-128912952D01*
X84073904Y-128960571D01*
X84121523Y-129055809D01*
X84121523Y-129293904D01*
X84073904Y-129389142D01*
X84026285Y-129436761D01*
X83931047Y-129484380D01*
X83692952Y-129484380D01*
X83597714Y-129436761D01*
X83550095Y-129389142D01*
%TO.C,U3*%
X46228095Y-149058380D02*
X46228095Y-149867904D01*
X46275714Y-149963142D01*
X46323333Y-150010761D01*
X46418571Y-150058380D01*
X46609047Y-150058380D01*
X46704285Y-150010761D01*
X46751904Y-149963142D01*
X46799523Y-149867904D01*
X46799523Y-149058380D01*
X47180476Y-149058380D02*
X47799523Y-149058380D01*
X47466190Y-149439333D01*
X47609047Y-149439333D01*
X47704285Y-149486952D01*
X47751904Y-149534571D01*
X47799523Y-149629809D01*
X47799523Y-149867904D01*
X47751904Y-149963142D01*
X47704285Y-150010761D01*
X47609047Y-150058380D01*
X47323333Y-150058380D01*
X47228095Y-150010761D01*
X47180476Y-149963142D01*
%TO.C,U2*%
X58420095Y-81748380D02*
X58420095Y-82557904D01*
X58467714Y-82653142D01*
X58515333Y-82700761D01*
X58610571Y-82748380D01*
X58801047Y-82748380D01*
X58896285Y-82700761D01*
X58943904Y-82653142D01*
X58991523Y-82557904D01*
X58991523Y-81748380D01*
X59420095Y-81843619D02*
X59467714Y-81796000D01*
X59562952Y-81748380D01*
X59801047Y-81748380D01*
X59896285Y-81796000D01*
X59943904Y-81843619D01*
X59991523Y-81938857D01*
X59991523Y-82034095D01*
X59943904Y-82176952D01*
X59372476Y-82748380D01*
X59991523Y-82748380D01*
%TO.C,U1*%
X58674095Y-64476380D02*
X58674095Y-65285904D01*
X58721714Y-65381142D01*
X58769333Y-65428761D01*
X58864571Y-65476380D01*
X59055047Y-65476380D01*
X59150285Y-65428761D01*
X59197904Y-65381142D01*
X59245523Y-65285904D01*
X59245523Y-64476380D01*
X60245523Y-65476380D02*
X59674095Y-65476380D01*
X59959809Y-65476380D02*
X59959809Y-64476380D01*
X59864571Y-64619238D01*
X59769333Y-64714476D01*
X59674095Y-64762095D01*
%TO.C,J2*%
X116506666Y-170562380D02*
X116506666Y-171276666D01*
X116459047Y-171419523D01*
X116363809Y-171514761D01*
X116220952Y-171562380D01*
X116125714Y-171562380D01*
X116935238Y-170657619D02*
X116982857Y-170610000D01*
X117078095Y-170562380D01*
X117316190Y-170562380D01*
X117411428Y-170610000D01*
X117459047Y-170657619D01*
X117506666Y-170752857D01*
X117506666Y-170848095D01*
X117459047Y-170990952D01*
X116887619Y-171562380D01*
X117506666Y-171562380D01*
%TO.C,J1*%
X58594666Y-54570380D02*
X58594666Y-55284666D01*
X58547047Y-55427523D01*
X58451809Y-55522761D01*
X58308952Y-55570380D01*
X58213714Y-55570380D01*
X59594666Y-55570380D02*
X59023238Y-55570380D01*
X59308952Y-55570380D02*
X59308952Y-54570380D01*
X59213714Y-54713238D01*
X59118476Y-54808476D01*
X59023238Y-54856095D01*
%TO.C,D1*%
X65301904Y-170067380D02*
X65301904Y-169067380D01*
X65540000Y-169067380D01*
X65682857Y-169115000D01*
X65778095Y-169210238D01*
X65825714Y-169305476D01*
X65873333Y-169495952D01*
X65873333Y-169638809D01*
X65825714Y-169829285D01*
X65778095Y-169924523D01*
X65682857Y-170019761D01*
X65540000Y-170067380D01*
X65301904Y-170067380D01*
X66825714Y-170067380D02*
X66254285Y-170067380D01*
X66540000Y-170067380D02*
X66540000Y-169067380D01*
X66444761Y-169210238D01*
X66349523Y-169305476D01*
X66254285Y-169353095D01*
X59428095Y-170637380D02*
X59428095Y-169637380D01*
X59999523Y-170637380D02*
X59570952Y-170065952D01*
X59999523Y-169637380D02*
X59428095Y-170208809D01*
%TD*%
M02*
